<svg xmlns="http://www.w3.org/2000/svg" fill="none" viewBox="0 0 512 512"><path stroke="var(--accent)" stroke-linecap="round" stroke-linejoin="round" stroke-width="30" d="M226.245 28.54c16.675-14.054 43.593-14.054 59.791 0l37.638 32.16c7.146 5.955 20.724 10.957 30.253 10.957h40.496c25.25 0 45.975 20.725 45.975 45.975v40.496c0 9.529 5.002 22.869 10.958 30.015l32.158 37.637c14.055 16.675 14.055 43.593 0 59.791l-32.158 37.638c-5.956 7.146-10.958 20.486-10.958 30.015v40.496c0 25.25-20.725 45.975-45.975 45.975h-40.496c-9.529 0-22.868 5.002-30.015 10.957l-37.637 32.159c-16.675 14.054-43.593 14.054-59.792 0l-37.638-32.159c-7.146-5.955-20.725-10.957-30.015-10.957h-41.687c-25.25 0-45.975-20.725-45.975-45.975v-40.735c0-9.29-4.764-22.868-10.72-29.776L28.29 285.333c-13.816-16.437-13.816-43.116 0-59.553l32.159-37.875c5.955-7.147 10.72-20.486 10.72-29.777V117.87c0-25.25 20.724-45.975 45.974-45.975h41.211c9.528 0 22.868-5.002 30.015-10.957l37.876-32.397Z"/><path stroke="currentColor" stroke-linecap="round" stroke-linejoin="round" stroke-width="50" d="M256.001 163.847v115.057"/><path stroke="currentColor" stroke-linecap="round" stroke-linejoin="round" stroke-width="66.667" d="M255.86 351.323h.216"/></svg>