<svg xmlns="http://www.w3.org/2000/svg" fill="none" viewBox="0 0 512 512"><path fill="currentColor" d="M323.984 250.775H308.31c-5.747 0-10.449 4.702-10.449 10.449s4.702 10.449 10.449 10.449h15.674c5.747 0 10.449-4.702 10.449-10.449s-4.702-10.449-10.449-10.449Z"/><path fill="currentColor" d="m438.4 336.457-37.616-62.694c-6.27-10.971-10.449-22.987-12.539-35.004L365.779 74.188l17.764-53.29c2.09-4.18 1.567-9.404-1.045-13.584C379.886 2.612 374.661 0 368.914 0H143.216c-5.224 0-9.926 2.612-13.061 6.792s-3.657 9.404-2.09 14.106l17.763 53.812-22.465 164.572c-2.09 12.538-6.269 24.555-12.539 35.004L73.208 336.98c-4.702 7.836-4.702 17.763-.522 26.122 4.702 8.359 13.583 13.584 22.987 13.584H244.05v124.865c0 5.747 4.702 10.449 10.449 10.449s10.449-4.702 10.449-10.449v-125.91h150.988c9.926 0 18.285-4.702 22.987-13.061 4.702-8.36 4.702-18.286-.522-26.123ZM361.6 20.898l-13.584 41.796H164.114l-14.106-41.796H361.6Zm59.037 331.233c-.523 1.045-2.09 2.612-4.702 2.612H95.673c-2.612 0-4.18-2.09-4.702-2.612-.522-1.045-1.045-2.613 0-4.702l37.617-62.694c2.612-4.18 4.702-8.359 6.791-13.062H261.29c5.747 0 10.449-4.702 10.449-10.449 0-5.746-4.702-10.448-10.449-10.448H142.171c.523-3.135 1.568-5.747 1.568-8.882l21.942-158.302h180.245l21.943 158.302c2.09 14.628 7.315 28.735 15.151 42.318l37.617 62.694c1.044 2.612.522 4.18 0 5.225Z"/></svg>