<svg xmlns="http://www.w3.org/2000/svg" fill="none" viewBox="0 0 512 512"><path fill="var(--accent)" d="M307.2 174.933c5.12 0 8.533-3.413 8.533-8.533v-4.267c0-5.12-3.413-8.533-8.533-8.533-5.12 0-8.533 3.413-8.533 8.533v4.267c0 5.12 3.413 8.533 8.533 8.533Zm0 39.254c5.12 0 8.533-4.267 8.533-8.533v-9.387c0-5.12-3.413-8.533-8.533-8.533-5.12 0-8.533 3.413-8.533 8.533v9.387c0 5.119 3.413 8.533 8.533 8.533Zm0 33.28c5.12 0 8.533-3.413 8.533-8.533v-4.267c0-5.12-3.413-8.533-8.533-8.533-5.12 0-8.533 3.413-8.533 8.533v4.267c0 5.119 3.413 8.533 8.533 8.533Zm34.133-72.534c5.12 0 8.533-3.413 8.533-8.533v-4.267c0-5.12-3.413-8.533-8.533-8.533-5.12 0-8.533 3.413-8.533 8.533v4.267c0 5.12 3.413 8.533 8.533 8.533Zm-8.533 30.72c0 5.12 3.413 8.533 8.533 8.533 5.12 0 8.533-4.267 8.533-8.533v-9.387c0-5.12-3.413-8.533-8.533-8.533-5.12 0-8.533 3.413-8.533 8.533v9.387Zm0 33.28c0 5.12 3.413 8.533 8.533 8.533 5.12 0 8.533-3.413 8.533-8.533v-4.267c0-5.12-3.413-8.533-8.533-8.533-5.12 0-8.533 3.413-8.533 8.533v4.267Zm42.667-64c5.12 0 8.533-3.413 8.533-8.533v-4.267c0-5.12-3.413-8.533-8.533-8.533-5.12 0-8.533 3.413-8.533 8.533v4.267c-.001 5.12 3.413 8.533 8.533 8.533Zm-8.534 30.72c0 5.12 3.413 8.533 8.533 8.533 5.12 0 8.534-4.266 8.534-8.533v-9.387c0-5.12-3.413-8.533-8.533-8.533-5.12 0-8.533 3.413-8.533 8.533l-.001 9.387Zm0 33.28c0 5.12 3.413 8.533 8.533 8.533 5.12 0 8.533-3.413 8.533-8.533v-4.267c0-5.12-3.413-8.533-8.533-8.533-5.12 0-8.533 3.413-8.533 8.533v4.267Z"/><path fill="currentColor" fill-rule="evenodd" d="M401.067 17.066c42.667 0 76.8 34.134 76.8 76.801v179.199h8.533c14.507.001 25.6 11.094 25.6 25.6 0 14.507-11.093 25.599-25.6 25.6h-10.04l-23.24 92.16c-6.65 24.938-29.497 43.39-55.916 44.328l10.689 21.379c1.706 4.266 0 9.385-3.413 11.093-.852 1.706-1.706 1.707-3.413 1.707-3.413 0-5.973-1.707-7.68-5.121L378.88 460.8h-236.8l-14.933 29.866c-1.707 2.56-4.267 4.267-7.68 4.267-.853 0-2.56 0-3.413-.853-4.266-1.706-5.973-6.826-3.413-11.093l11.093-22.187h-6.827c-27.307 0-51.2-18.774-58.027-45.227l-23.025-91.307H25.6c-14.507-.001-25.6-11.093-25.6-25.6 0-14.507 11.093-25.6 25.6-25.601h.826l.014-.065h17.955l-.022.066H186.88l-.023-.066h17.104l.014.065H460.8V93.866c0-33.28-26.453-59.733-59.733-59.733-31.997 0-48.283 24.984-50.834 52.1C369.726 90.23 384 107.166 384 128c0 5.12-3.413 8.533-8.533 8.533H307.2c-5.12 0-8.533-3.413-8.533-8.533 0-21.066 14.597-38.144 34.426-41.893 3.039-41.034 30.205-69.04 67.974-69.04ZM53.76 324.267l22.187 87.04c5.12 18.774 22.186 32.427 41.813 32.427h278.187c19.626 0 36.693-13.654 41.813-32.427l20.48-87.04H53.76ZM25.6 290.134c-5.12 0-8.533 3.413-8.533 8.533 0 5.12 3.413 8.533 8.533 8.533h460.8c5.12 0 8.533-3.413 8.533-8.533 0-5.12-3.413-8.533-8.533-8.533H25.6Zm316.588-187.735c-11.094 0-21.334 6.828-24.748 17.068h48.64c-3.413-10.24-12.799-17.067-23.892-17.068Z" clip-rule="evenodd"/><path fill="var(--accent)" d="M127.562 222c13.652 0 25.599 6.827 34.132 17.066 20.94 0 37.942 14.421 41.827 34.068h-17.103c-3.432-10.203-12.801-17-23.87-17h-2.561c-3.414.853-7.679-.855-9.386-4.268-4.267-8.533-12.801-12.8-22.188-12.8-12.8.001-23.04 9.388-25.6 22.188-.853 3.414-2.559 5.974-5.972 6.827-3.413.853-6.826 0-8.533-2.56-5.973-5.974-12.8-9.387-20.48-9.387-11.07 0-20.44 6.797-23.872 17H26c3.885-19.647 20.888-34.067 41.827-34.068 7.68 0 15.36 2.561 22.188 5.974 6.827-13.653 21.334-23.04 37.547-23.04Z"/></svg>