<svg xmlns="http://www.w3.org/2000/svg" fill="none" viewBox="0 0 512 512"><path fill="var(--accent)" d="M195.924 169.132h40.27a7.518 7.518 0 0 0 7.52-7.519 7.519 7.519 0 0 0-7.52-7.52h-23.178l28.722-31.336c4.333-4.729.857-12.6-5.544-12.6h-36.486a7.519 7.519 0 0 0-7.52 7.52 7.518 7.518 0 0 0 7.52 7.519h19.394l-28.722 31.337c-4.333 4.729-.858 12.599 5.544 12.599ZM283.278 124.383h64.894a7.519 7.519 0 0 0 7.519-7.52 7.519 7.519 0 0 0-7.519-7.519H300.37l53.345-58.203c4.335-4.73.857-12.6-5.543-12.6h-61.095c-4.098 0-7.52 3.422-7.52 7.52 0 4.097 3.422 7.52 7.52 7.52h44.002l-53.344 58.202c-4.336 4.729-.858 12.6 5.543 12.6Z"/><path fill="currentColor" d="M117.579 193.359a7.519 7.519 0 0 1 7.52 7.52 7.518 7.518 0 0 1-7.52 7.519H70.643c-9.912 0-17.975 8.063-17.975 17.975v84.211h33.757v-.084h15.039v.085h114.64v-.085h15.04v.084h49.712v-.084h15.04v.085h114.64v-.085h15.039v.084h33.757v-84.211c0-9.912-8.063-17.975-17.975-17.975H147.658a7.518 7.518 0 0 1-7.519-7.519 7.52 7.52 0 0 1 7.519-7.52h293.699c18.204 0 33.014 14.811 33.014 33.014v84.475c21.133 2.333 37.629 20.29 37.629 42.035V465.94a7.52 7.52 0 0 1-7.52 7.52H147.658a7.519 7.519 0 0 1-7.519-7.52 7.519 7.519 0 0 1 7.519-7.519h349.303v-78.395h-67.635a7.517 7.517 0 0 1-7.519-7.519 7.518 7.518 0 0 1 7.519-7.52h67.635v-12.103c0-15.031-12.229-27.259-27.26-27.259H42.298c-15.031 0-27.259 12.228-27.259 27.259v12.103h384.209a7.519 7.519 0 0 1 7.52 7.52 7.518 7.518 0 0 1-7.52 7.519H15.039v78.395h102.54a7.519 7.519 0 0 1 7.52 7.519 7.519 7.519 0 0 1-7.52 7.52H7.519A7.52 7.52 0 0 1 0 465.94V352.883c0-21.745 16.496-39.702 37.629-42.035v-84.475c0-18.204 14.81-33.014 33.014-33.014h46.936Z"/><path fill="var(--accent)" d="M198.351 260.563c18.081.001 32.793 14.713 32.793 32.795V310.5h-15.04v-17.141c0-9.79-7.963-17.754-17.753-17.755h-79.132c-9.791 0-17.755 7.965-17.755 17.755V310.5h-15.04v-17.142c0-18.083 14.712-32.795 32.795-32.795h79.132ZM392.781 260.563c18.083 0 32.794 14.712 32.794 32.795V310.5h-15.039v-17.141c0-9.79-7.964-17.755-17.755-17.755h-79.132c-9.79.001-17.753 7.965-17.753 17.755V310.5h-15.04v-17.142c0-18.082 14.712-32.794 32.793-32.795h79.132Z"/></svg>