<svg xmlns="http://www.w3.org/2000/svg" fill="none" viewBox="0 0 512 512"><path fill="currentColor" d="M341.422 149.489h-16.017c-5.872 0-10.677 4.805-10.677 10.678 0 5.873 4.805 10.678 10.677 10.678h16.017c5.873 0 10.678-4.805 10.678-10.678 0-5.873-4.805-10.678-10.678-10.678Z"/><path fill="currentColor" d="M421.506 64.067h-64.067C357.439 28.83 328.609 0 293.372 0h-80.083c-35.237 0-64.067 28.83-64.067 64.067H90.494c-29.364 0-53.389 24.025-53.389 53.389v21.355c0 16.017 12.28 29.364 27.763 31.5l27.228 293.105C94.766 491.178 117.723 512 145.485 512h221.03c27.763 0 50.72-20.822 53.389-48.584l27.229-293.105c15.482-2.136 27.762-15.483 27.762-31.5v-21.355c0-29.364-24.025-53.39-53.389-53.39ZM213.289 21.356h80.083c23.492 0 42.712 19.22 42.712 42.71H170.578c0-23.49 19.22-42.71 42.711-42.71Zm240.25 117.455c0 5.873-4.805 10.678-10.678 10.678h-5.338c-5.339 0-10.144 4.271-10.678 9.61l-28.296 302.715c-1.602 16.551-15.483 29.364-32.034 29.364h-221.03c-16.551 0-30.432-12.813-32.033-29.364L86.223 170.845h191.133c5.873 0 10.678-4.805 10.678-10.678 0-5.873-4.805-10.678-10.678-10.678H69.138c-5.872 0-10.677-4.805-10.677-10.678v-21.355c0-17.619 14.415-32.034 32.033-32.034h331.012c17.618 0 32.033 14.415 32.033 32.034v21.355Z"/><path stroke="var(--accent)"  stroke-width="30" d="M170.578 213.556c-5.873 0-10.678 4.805-10.678 10.677v202.878c0 5.873 4.805 10.678 10.678 10.678 5.872 0 10.677-4.805 10.677-10.678V224.233c0-5.872-4.805-10.677-10.677-10.677ZM256 213.556c-5.873 0-10.678 4.805-10.678 10.677v202.878c0 5.873 4.805 10.678 10.678 10.678 5.873 0 10.678-4.805 10.678-10.678V224.233c0-5.872-4.805-10.677-10.678-10.677ZM341.423 213.556c-5.873 0-10.678 4.805-10.678 10.677v202.878c0 5.873 4.805 10.678 10.678 10.678 5.873 0 10.678-4.805 10.678-10.678V224.233c0-5.872-4.805-10.677-10.678-10.677Z"/></svg>