<svg xmlns="http://www.w3.org/2000/svg" fill="none" viewBox="0 0 512 512"><path fill="var(--accent)" fill-rule="evenodd" d="M34.133 76.8c15.83 0 29.232 10.921 33.046 25.6H85v17.066H67.179c-3.814 14.679-17.217 25.6-33.046 25.6C15.36 145.066 0 129.706 0 110.934 0 92.161 15.36 76.8 34.133 76.8Zm0 17.066c-9.387 0-17.067 7.681-17.067 17.068 0 9.386 7.68 17.066 17.067 17.066S51.2 120.32 51.2 110.934c0-9.387-7.68-17.068-17.067-17.068Z" clip-rule="evenodd"/><path fill="currentColor" fill-rule="evenodd" d="M392.534 51.2c19.626 0 34.133 14.506 34.133 34.133V102H409.6V85.333c0-10.24-6.827-17.065-17.066-17.066-9.387 0-17.067 10.239-17.067 17.066V102.4h.033v17.067h-.033v290.134h25.6c5.12-.001 8.533-3.414 8.533-8.534V120h17.066v281.067c0 14.507-11.093 25.6-25.6 25.6h-25.6v8.533c0 14.507-11.093 25.6-25.6 25.6H110.933c-14.507 0-25.6-11.093-25.6-25.6V119.466H85V102.4h.334V80.213c0-16.213 15.36-29.013 34.133-29.013h273.067ZM102.4 435.2c0 5.12 3.413 8.533 8.533 8.533h238.934c5.12 0 8.533-3.413 8.533-8.533v-42.667h-256V435.2Zm17.067-366.933c-9.387 0-17.066 5.12-17.067 11.946v295.252h256V85.332c0-.543.023-1.09.059-1.64.284-5.42 1.961-10.774 5.061-15.425H119.467Z" clip-rule="evenodd"/><path fill="var(--accent)" fill-rule="evenodd" d="M477.867 76.8c18.773 0 34.133 15.36 34.132 34.135 0 18.772-15.36 34.132-34.133 34.132-15.83 0-29.232-10.921-33.046-25.6l-16.32.033h-53v-17l52.5-.1h16.821c3.814-14.679 17.216-25.6 33.046-25.6Zm0 17.066c-9.387 0-17.067 7.681-17.067 17.068 0 9.386 7.68 17.066 17.067 17.066 9.386 0 17.065-7.68 17.067-17.066 0-9.387-7.68-17.068-17.067-17.068Z" clip-rule="evenodd"/></svg>