<svg xmlns="http://www.w3.org/2000/svg" fill="none" viewBox="0 0 512 512"><path stroke="currentColor" stroke-linecap="round" stroke-linejoin="round" stroke-width="50" d="m280.902 37.262 145.533 64.627c41.933 18.5 41.933 49.086 0 67.586l-145.533 64.626c-16.527 7.4-43.66 7.4-60.187 0L75.182 169.475c-41.933-18.5-41.933-49.086 0-67.586l145.533-64.627c16.527-7.4 43.66-7.4 60.187 0Z"/><path stroke="var(--accent)" stroke-linecap="round" stroke-linejoin="round" stroke-width="30" d="M34 236.573c0 20.72 15.54 44.646 34.533 53.033l167.487 74.493c12.827 5.674 27.38 5.674 39.96 0l167.487-74.493C462.46 281.219 478 257.293 478 236.573"/><path stroke="var(--accent)" stroke-linecap="round" stroke-linejoin="round" stroke-width="30" d="M34 359.906c0 22.94 13.567 43.66 34.533 53.034l167.487 74.493c12.827 5.673 27.38 5.673 39.96 0l167.487-74.493C464.433 403.566 478 382.846 478 359.906"/></svg>