<svg xmlns="http://www.w3.org/2000/svg" fill="none" viewBox="0 0 512 512"><path stroke="var(--accent)" stroke-linecap="round" stroke-linejoin="round" stroke-width="50" d="M226.099 434.548V77.452c0-33.901-14.314-47.462-50.476-47.462H84.466c-36.162 0-50.476 13.56-50.476 47.462v357.096c0 33.901 14.314 47.462 50.476 47.462h91.157c36.162 0 50.476-13.561 50.476-47.462Z"/><path stroke="currentColor" stroke-linecap="round" stroke-linejoin="round" stroke-width="30" d="M486.001 434.548V77.452c0-33.901-14.314-47.462-50.476-47.462h-91.157c-35.91 0-50.475 13.56-50.475 47.462v357.096c0 33.901 14.314 47.462 50.475 47.462h91.157c36.162 0 50.476-13.561 50.476-47.462Z"/></svg>