<svg xmlns="http://www.w3.org/2000/svg" fill="none" viewBox="0 0 512 512"><path stroke="var(--accent)" stroke-opacity=".69" stroke-width="50" d="M427.5 501.5 269.474 107.882M498.5 56.5 11.5 159"/><path stroke="currentColor" stroke-linecap="round" stroke-width="50" d="M86.231 25H425.77c15.504 0 25.629.02 33.362.651 7.441.608 10.44 1.657 12.092 2.498h.001a28.888 28.888 0 0 1 12.625 12.625l.002.003c.842 1.653 1.89 4.651 2.498 12.092.631 7.733.651 17.858.651 33.362V425.77c0 15.504-.02 25.629-.651 33.362-.608 7.441-1.657 10.44-2.498 12.092l-.001.003a28.896 28.896 0 0 1-12.624 12.624l-.003.001c-1.652.841-4.651 1.89-12.092 2.498-7.733.631-17.858.651-33.362.651H86.231c-15.504 0-25.63-.02-33.362-.651-7.44-.608-10.44-1.656-12.092-2.498l-.003-.002a28.888 28.888 0 0 1-12.625-12.625v-.001c-.841-1.652-1.89-4.651-2.498-12.092-.631-7.733-.651-17.858-.651-33.362V86.231l.002-5.567c.012-12.43.097-21.029.65-27.795.607-7.44 1.655-10.44 2.497-12.092v0a28.892 28.892 0 0 1 12.627-12.628h.001c1.653-.842 4.652-1.89 12.092-2.498 6.767-.552 15.365-.637 27.795-.649L86.231 25Z"/><path stroke="currentColor" stroke-width="30" d="M289 297.935c0 58.057-57.466 98.841-82.535 113.872-7.105 4.258-15.825 4.258-22.93 0C158.467 396.776 101 355.992 101 297.935c0-56.96 45.546-94.935 94-94.935 50.134 0 94 37.975 94 94.935Z"/><path fill="currentColor" d="M195 324c14.912 0 27-12.088 27-27s-12.088-27-27-27-27 12.088-27 27 12.088 27 27 27Z"/></svg>