<svg xmlns="http://www.w3.org/2000/svg" fill="none" viewBox="0 0 512 512"><path stroke="var(--accent)" stroke-linecap="round" stroke-linejoin="round" stroke-width="50" d="M484 182.101V321.9c0 58.25-11.65 99.024-37.746 125.353L297.601 298.6l180.108-180.108c4.194 18.407 6.291 39.377 6.291 63.609Z"/><path stroke="currentColor" stroke-linecap="round" stroke-linejoin="round" stroke-width="30" d="M477.708 118.491 117.491 478.708C47.358 462.631 18 414.167 18 321.9V182.1C18 65.6 64.6 19 181.1 19h139.799c92.268 0 140.732 29.358 156.809 99.491Z"/><path stroke="var(--accent)" stroke-linecap="round" stroke-linejoin="round" stroke-width="50" d="M446.241 447.254C419.912 473.35 379.137 485 320.887 485H181.089c-24.232 0-45.203-2.097-63.61-6.291L297.587 298.6l148.654 148.654Z"/><path stroke="var(--accent)" stroke-width="30" d="M116.775 158.339c15.844-68.269 118.364-68.269 134.208 0 9.087 40.076-16.077 74.093-38.212 95.063-16.077 15.378-41.474 15.378-57.784 0-22.135-20.97-47.532-54.987-38.212-95.063Z"/><path stroke="currentColor" stroke-linecap="round" stroke-linejoin="round" stroke-width="30" d="M183.293 175.115h.21"/></svg>