<svg xmlns="http://www.w3.org/2000/svg" fill="none" viewBox="0 0 512 512"><path stroke="var(--accent)" stroke-opacity=".69" stroke-width="33" d="M427.5 501.5 269.474 107.882M498.5 56.5 11.5 159"/><path stroke="currentColor" stroke-linecap="round" stroke-width="21" d="M86.231 9H425.77c15.24 0 26.129.007 34.665.704 8.43.689 13.77 2.007 18.053 4.19a44.88 44.88 0 0 1 19.619 19.618v.002c2.183 4.284 3.501 9.622 4.19 18.052.697 8.536.704 19.425.704 34.665V425.77c0 15.24-.007 26.129-.704 34.665-.689 8.43-2.007 13.77-4.19 18.053v.001a44.87 44.87 0 0 1-19.618 19.618h-.001c-4.283 2.183-9.623 3.501-18.053 4.19-8.536.697-19.425.704-34.665.704H86.231c-15.24 0-26.13-.007-34.665-.704-8.43-.689-13.768-2.007-18.052-4.19h-.002a44.88 44.88 0 0 1-19.618-19.619c-2.183-4.283-3.501-9.623-4.19-18.053C9.007 451.898 9 441.009 9 425.769V86.231c0-15.24.007-26.13.704-34.665.689-8.43 2.007-13.77 4.19-18.053a44.89 44.89 0 0 1 19.619-19.62c4.284-2.182 9.623-3.5 18.053-4.189C60.102 9.007 70.991 9 86.231 9Z"/><path stroke="currentColor" stroke-width="21" d="M269 337.935c0 58.057-57.466 98.841-82.535 113.872-7.105 4.258-15.825 4.258-22.93 0C138.467 436.776 81 395.992 81 337.935 81 280.975 126.546 243 175 243c50.134 0 94 37.975 94 94.935Z"/><path fill="currentColor" d="M175 364c14.912 0 27-12.088 27-27s-12.088-27-27-27-27 12.088-27 27 12.088 27 27 27Z"/></svg>