<svg xmlns="http://www.w3.org/2000/svg" fill="none" viewBox="0 0 512 512"><path stroke="currentColor" stroke-linecap="round" stroke-linejoin="round" stroke-width="30" d="M185.199 492.001h141.6c118 0 165.2-47.2 165.2-165.201V185.2c0-118-47.2-165.2-165.2-165.2h-141.6c-118 0-165.201 47.2-165.201 165.2v141.6c0 118.001 47.2 165.201 165.201 165.201Z"/><path stroke="var(--accent)" stroke-linecap="round" stroke-linejoin="round" stroke-miterlimit="10" stroke-width="30" d="M340.26 409.391v-92.04M340.26 148.619v-46.02M340.245 271.345c33.89 0 61.36-27.473 61.36-61.361s-27.47-61.36-61.36-61.36c-33.887 0-61.36 27.472-61.36 61.36s27.473 61.361 61.36 61.361ZM171.74 409.396v-46.021M171.74 194.64v-92.041M171.749 363.371c33.888 0 61.36-27.473 61.36-61.36 0-33.888-27.472-61.361-61.36-61.361s-61.36 27.473-61.36 61.361c0 33.887 27.472 61.36 61.36 61.36Z"/></svg>