<svg xmlns="http://www.w3.org/2000/svg" fill="none" viewBox="0 0 512 512"><path fill="currentColor" d="M414.72 455.68c22.622 0 40.96-18.338 40.96-40.96V97.28c0-22.623-18.338-40.96-40.96-40.96H97.28c-22.623 0-40.96 18.337-40.96 40.96v317.44c0 22.622 18.337 40.96 40.96 40.96h317.44Zm0 20.48H97.28c-33.933 0-61.44-27.507-61.44-61.44V97.28c0-33.933 27.507-61.44 61.44-61.44h317.44c33.933 0 61.44 27.507 61.44 61.44v317.44c0 33.933-27.507 61.44-61.44 61.44Z"/><path fill="currentColor" d="M188.269 115.373v286.72c0 5.655 4.585 10.24 10.24 10.24 5.656 0 10.24-4.585 10.24-10.24v-286.72c0-5.656-4.584-10.24-10.24-10.24-5.655 0-10.24 4.584-10.24 10.24Z"/><path fill="currentColor" d="M277.651 251.987c36.759 0 66.56-29.802 66.56-66.56 0-36.052-29.228-65.28-65.28-65.28h-70.18v131.84h68.9Zm0 20.48h-79.14c-5.655 0-10.24-4.585-10.24-10.24v-152.32c0-5.656 4.585-10.24 10.24-10.24h80.42c47.363 0 85.76 38.397 85.76 85.76 0 48.069-38.97 87.04-87.04 87.04Z"/></svg>