<svg xmlns="http://www.w3.org/2000/svg" fill="none" viewBox="0 0 512 512"><path fill="currentColor" d="M326.781 281.813c12.331 3.947 22.997 8.875 32.917 14.934l-.661-.384c11.286 5.013 21.035 10.88 29.931 17.77l-.32-.234c.426 1.301.682 2.773.682 4.33 0 .235 0 .448-.021.683v-.021c-.32 9.152-2.347 17.749-5.781 25.578l.17-.448c-4.928 9.878-13.141 17.494-23.189 21.547l-.299.107c-9.792 5.184-21.354 8.384-33.621 8.768h-.128c-23.467-3.115-44.672-10.326-63.744-20.95l.918.47c-21.803-9.984-40.427-23.104-56.235-39.019l-.021-.021c-17.579-18.283-33.686-38.294-47.958-59.606l-1.002-1.578c-13.568-17.686-22.208-39.808-23.467-63.894l-.021-.277v-2.645c.682-20.8 9.984-39.318 24.405-52.203l.064-.064a24.956 24.956 0 0 1 17.173-7.275h.022a52.81 52.81 0 0 1 6.229.534l-.277-.043c1.856.277 4.01.448 6.229.491h.064a13.695 13.695 0 0 1 8.832 2.176l-.043-.022a23.891 23.891 0 0 1 5.078 8.918l.042.17c1.764 4.409 5.405 14.109 10.923 29.099 2.88 6.699 5.696 14.955 7.957 23.445l.299 1.344c-1.621 7.702-5.717 14.251-11.371 18.966l-.064.042c-7.609 8.05-11.413 13.17-11.413 15.36a9.296 9.296 0 0 0 1.728 4.992l-.021-.021c8.64 17.685 19.968 32.704 33.621 45.205l.107.107c14.4 12.992 30.848 24.149 48.682 32.853l1.259.555a14.526 14.526 0 0 0 7.232 2.325h.043c3.313 0 9.272-5.347 17.877-16.042 8.604-10.695 14.322-16.043 17.152-16.043l.021.021Zm-67.136 175.275h.47c28.949 0 56.469-6.08 81.365-17.045l-1.301.512c50.261-21.206 89.45-60.395 110.143-109.312l.512-1.344c10.454-23.744 16.534-51.435 16.534-80.534 0-29.098-6.08-56.789-17.046-81.856l.512 1.323c-21.205-50.261-60.394-89.45-109.311-110.144l-1.344-.512c-23.744-10.453-51.435-16.533-80.534-16.533-29.098 0-56.789 6.08-81.856 17.045l1.323-.512c-50.261 21.205-89.45 60.395-110.144 109.312l-.512 1.344c-10.454 23.829-16.534 51.605-16.534 80.789 0 45.675 14.891 87.894 40.086 122.027l-.405-.555-26.134 77.078 80.043-25.472c31.787 21.546 70.976 34.389 113.173 34.389h1.003-.043Zm0-457.088h.704c34.731 0 67.755 7.296 97.6 20.459l-1.557-.619c60.266 25.536 107.264 72.533 132.181 131.179l.619 1.621c12.544 28.523 19.84 61.781 19.84 96.747 0 34.965-7.296 68.224-20.459 98.325l.619-1.579c-25.536 60.267-72.534 107.264-131.179 132.182l-1.621.618c-28.31 12.544-61.333 19.84-96.064 19.84h-.725.042-1.13c-43.926 0-85.163-11.541-120.832-31.744l1.216.64L.979 512 45.97 378.048c-22.422-36.565-35.712-80.832-35.712-128.213 0-35.115 7.296-68.523 20.458-98.795l-.618 1.6C55.635 92.373 102.632 45.376 161.276 20.459l1.622-.619C191.208 7.296 224.232 0 258.963 0h.704-.022Z"/></svg>