<svg xmlns="http://www.w3.org/2000/svg" fill="none" viewBox="0 0 512 512"><path stroke="currentColor" stroke-miterlimit="10" stroke-width="50" d="M482 398.874c0 8.154-1.811 16.535-5.658 24.689-3.848 8.154-8.828 15.855-15.392 23.103-11.09 12.231-23.313 21.065-37.119 26.727-13.581 5.663-28.293 8.607-44.136 8.607-23.087 0-47.758-5.436-73.787-16.534-26.029-11.099-52.058-26.048-77.861-44.847-26.029-19.026-50.7-40.091-74.239-63.421-23.313-23.556-44.363-48.244-63.149-74.065-18.56-25.821-33.498-51.642-44.363-77.236C35.432 180.076 30 155.387 30 131.831c0-15.402 2.716-30.124 8.148-43.714C43.58 74.3 52.181 61.615 64.178 50.29 78.662 36.021 94.506 29 111.255 29c6.337 0 12.675 1.359 18.333 4.077 5.885 2.718 11.091 6.795 15.165 12.684l52.511 74.066c4.074 5.662 7.016 10.871 9.053 15.854 2.038 4.757 3.169 9.514 3.169 13.817 0 5.436-1.584 10.872-4.753 16.081-2.942 5.21-7.243 10.646-12.675 16.082l-17.202 17.893c-2.489 2.492-3.621 5.437-3.621 9.061 0 1.812.226 3.397.679 5.209.679 1.812 1.358 3.171 1.811 4.53 4.074 7.474 11.09 17.214 21.049 28.992 10.185 11.778 21.05 23.783 32.819 35.787 12.223 12.005 23.992 23.103 35.988 33.295 11.77 9.966 21.503 16.761 29.198 20.838 1.132.453 2.49 1.133 4.074 1.812 1.811.68 3.622.906 5.659.906 3.848 0 6.79-1.358 9.28-3.85l17.201-16.987c5.659-5.663 11.091-9.967 16.297-12.685 5.206-3.171 10.412-4.756 16.07-4.756 4.3 0 8.827.906 13.807 2.944 4.979 2.039 10.185 4.984 15.844 8.834l74.918 53.227c5.885 4.077 9.959 8.834 12.449 14.496 2.263 5.663 3.621 11.325 3.621 17.667Z"/></svg>