<svg xmlns="http://www.w3.org/2000/svg" fill="none" viewBox="0 0 512 512"><path fill="currentColor" d="M502.154 496.094H448V215.533h29.538c8.862 0 16.246-7.669 18.708-18.533 2.462-11.504-.985-23.008-8.862-28.76L277.169 9.107c-15.261-12.143-34.954-12.143-50.215 0L16.738 168.24c-7.876 5.752-11.815 17.256-9.353 28.12 2.461 11.504 9.846 19.173 19.2 19.173h27.569v280.561H9.846c-5.415 0-9.846 5.752-9.846 12.782h512c0-7.03-4.431-12.782-9.846-12.782Zm-132.923 0h-59.077V304.367c0-7.03 4.43-12.782 9.846-12.782h39.385c5.415 0 9.846 5.752 9.846 12.782v191.727Zm59.077-293.343c0 1.279 0 1.918.492 2.557 0 .639-.492 1.917-.492 2.556v287.591h-39.385V304.367c0-21.09-13.292-38.346-29.538-38.346H320c-16.246 0-29.539 17.256-29.539 38.346v191.727H73.846V215.533h202.339c5.415 0 9.846-5.752 9.846-12.782s-4.431-12.781-9.846-12.781H27.077L236.8 30.836c9.354-7.03 21.169-7.03 30.523 0L477.538 189.97h-39.384c-5.416 0-9.846 5.751-9.846 12.781Z"/><path fill="currentColor" d="M182.154 266.021c-27.077 0-49.231 28.759-49.231 63.909s22.154 63.909 49.231 63.909 49.23-28.759 49.23-63.909-22.153-63.909-49.23-63.909Zm0 102.254c-16.247 0-29.539-17.255-29.539-38.345s13.292-38.345 29.539-38.345c16.246 0 29.538 17.255 29.538 38.345s-13.292 38.345-29.538 38.345Z"/></svg>