<svg xmlns="http://www.w3.org/2000/svg" fill="none" viewBox="0 0 512 512"><path stroke="var(--accent)" stroke-linecap="round" stroke-width="30" d="M243 462V306c0-6.627 5.373-12 12-12h67c6.627 0 12 5.373 12 12v156"/><path stroke="currentColor" stroke-linecap="round" stroke-width="50" d="M330.601 207.755H52.431c-10.803 0-15.555-13.604-7.098-20.317l202.8-157.71a12.001 12.001 0 0 1 14.734 0l202.8 157.71c8.457 6.713 3.705 20.317-7.097 20.317h-15.316c-6.301 0-11.408 5.102-11.408 11.396v255.453c0 6.294-5.108 11.396-11.408 11.396H91.988c-6.3 0-11.408-5.102-11.408-11.396V207.755"/></svg>