<svg xmlns="http://www.w3.org/2000/svg" fill="none" viewBox="0 0 512 512"><path stroke="currentColor" stroke-linecap="round" stroke-linejoin="round" stroke-miterlimit="10" stroke-width="30" d="M279.7 493H90.1C42.7 493 19 469.3 19 421.9V232.3c0-47.4 23.7-71.1 71.1-71.1h118.5v260.7c0 47.4 23.7 71.1 71.1 71.1Z"/><path stroke="var(--accent)" stroke-linecap="round" stroke-linejoin="round" stroke-miterlimit="10" stroke-width="30" d="M211.208 66.4c-1.896 7.11-2.607 14.93-2.607 23.7v71.1h-118.5v-47.4c0-26.07 21.33-47.4 47.4-47.4h73.707Z"/><path stroke="var(--accent)" stroke-linecap="round" stroke-linejoin="round" stroke-miterlimit="10" stroke-width="50" d="M303.4 161.2v118.5M398.2 161.2v118.5"/><path stroke="currentColor" stroke-linecap="round" stroke-linejoin="round" stroke-miterlimit="10" stroke-width="30" d="M374.5 374.5h-47.4c-13.035 0-23.7 10.665-23.7 23.7V493h94.801v-94.8c0-13.035-10.665-23.7-23.701-23.7Z"/><path stroke="var(--accent)" stroke-linecap="round" stroke-linejoin="round" stroke-miterlimit="10" stroke-width="30" d="M113.8 279.7v94.8"/><path stroke="currentColor" stroke-linecap="round" stroke-linejoin="round" stroke-miterlimit="10" stroke-width="30" d="M208.6 421.9V90.1c0-47.4 23.7-71.1 71.1-71.1h142.2c47.4 0 71.1 23.7 71.1 71.1v331.8c0 47.4-23.7 71.1-71.1 71.1H279.7c-47.4 0-71.1-23.7-71.1-71.1Z"/></svg>