<svg xmlns="http://www.w3.org/2000/svg" fill="none" viewBox="0 0 512 512"><path stroke="var(--accent)" stroke-linecap="round" stroke-linejoin="round" stroke-miterlimit="10" stroke-width="30" d="M482.228 119.645v54.841c0 35.804-22.662 58.466-58.467 58.466H346.26V74.549C346.26 49.395 366.882 29 392.036 29c24.7.227 47.362 10.198 63.678 26.514 16.316 16.542 26.514 39.204 26.514 64.131Z"/><path stroke="var(--accent)" stroke-linecap="round" stroke-linejoin="round" stroke-width="30" d="M187.629 278.497h67.984"/><path stroke="var(--accent)" stroke-linecap="round" stroke-linejoin="round" stroke-width="50" d="M187.629 187.851h67.984"/><path stroke="var(--accent)" stroke-linecap="round" stroke-linejoin="round" stroke-width="50" d="M119.557 278.275h.203"/><path stroke="currentColor" stroke-linecap="round" stroke-linejoin="round" stroke-width="30" d="M119.521 187.629h.204"/><path stroke="currentColor" stroke-linecap="round" stroke-linejoin="round" stroke-miterlimit="10" stroke-width="30" d="M29 142.307v317.258c0 18.809 21.302 29.46 36.258 18.129l38.751-29.007c9.064-6.798 21.755-5.892 29.913 2.267l37.618 37.844c8.838 8.838 23.341 8.838 32.179 0l38.071-38.071c7.931-7.932 20.621-8.838 29.459-2.04L310 477.694c14.957 11.104 36.258.453 36.258-18.129V74.323c0-24.928 20.395-45.323 45.323-45.323H119.645C51.661 29 29 69.564 29 119.645v22.662Z"/></svg>