<svg xmlns="http://www.w3.org/2000/svg" fill="none" viewBox="0 0 512 512"><path stroke="var(--accent)" stroke-linecap="round" stroke-linejoin="round" stroke-miterlimit="10" stroke-width="50" d="M478 116.602v53.778c0 35.111-22.167 57.333-57.19 57.333H345V72.38c0-24.667 20.172-44.667 44.777-44.667 24.161.223 46.328 10 62.288 26C468.025 69.936 478 92.158 478 116.602Z"/><path stroke="currentColor" stroke-linecap="round" stroke-linejoin="round" stroke-miterlimit="10" stroke-width="30" d="M34 138.73v310.847c0 18.428 20.856 28.864 35.5 17.762l37.941-28.42c8.875-6.661 21.3-5.773 29.287 2.22l36.831 37.08c8.653 8.659 22.854 8.659 31.507 0l37.275-37.302c7.765-7.771 20.19-8.659 28.843-1.998l37.941 28.42c14.644 10.88 35.5.444 35.5-17.762V72.12c0-24.424 19.969-44.407 44.375-44.407H122.75C56.187 27.713 34 67.457 34 116.527v22.203Z"/></svg>