<svg xmlns="http://www.w3.org/2000/svg" fill="none" viewBox="0 0 514 512"><path stroke="var(--accent)" stroke-linecap="round" stroke-width="18" d="M162 403.5h187.5M162 89h187.5"/><path stroke="currentColor" stroke-width="18" d="M9 20.936c0-2.722 2.659-4.648 5.245-3.801l143.5 46.986a4 4 0 0 1 2.755 3.802v353.294a4 4 0 0 1-2.311 3.625l-143.5 66.882c-2.651 1.235-5.689-.7-5.689-3.625V20.936ZM505 20.817c0-2.71-2.639-4.636-5.221-3.808l-147 47.112A4 4 0 0 0 350 67.93v352.79a4 4 0 0 0 2.34 3.639l147 67.061c2.649 1.208 5.66-.728 5.66-3.64V20.817Z"/><path stroke="currentColor" stroke-linecap="round" stroke-width="18" d="M118 213v84.5M392 213v84.5"/></svg>