<svg xmlns="http://www.w3.org/2000/svg" fill="none" viewBox="0 0 512 512"><path stroke="currentColor" stroke-linecap="round" stroke-linejoin="round" stroke-width="30" d="M226.443 36.712h-45.431C67.432 36.712 22 82.144 22 195.724V332.02c0 113.579 45.432 159.011 159.012 159.011h136.295c113.58 0 159.012-45.432 159.012-159.011v-45.432"/><path stroke="var(--accent)" stroke-linecap="round" stroke-linejoin="round" stroke-miterlimit="10" stroke-width="50" d="M340.929 59.877 161.927 238.88c-6.815 6.814-13.63 20.217-14.992 29.985l-9.768 68.375c-3.635 24.76 13.856 42.024 38.617 38.617l68.375-9.768c9.541-1.363 22.943-8.178 29.985-14.993l179.002-179.002c30.894-30.894 45.432-66.785 0-112.217s-81.323-30.894-112.217 0Z"/><path stroke="currentColor" stroke-linecap="round" stroke-linejoin="round" stroke-miterlimit="10" stroke-width="30" d="M315.268 85.55c15.219 54.291 57.698 96.77 112.216 112.217"/></svg>