<svg xmlns="http://www.w3.org/2000/svg" fill="none" viewBox="0 0 512 512"><path stroke="var(--accent)" stroke-linecap="round" stroke-linejoin="round" stroke-width="50" d="m377.165 78.95-1.603 86.81c-.229 11.911 7.332 27.716 16.952 34.817l56.805 43.062c36.419 27.486 30.464 61.157-13.056 74.9l-73.984 23.134c-12.369 3.894-25.425 17.408-28.632 30.006L316.01 439.02c-13.972 53.141-48.79 58.409-77.651 11.682l-40.312-65.28c-7.33-11.911-24.738-20.844-38.481-20.156l-76.502 3.893c-54.744 2.749-70.32-28.86-34.588-70.548l45.352-52.682c8.475-9.849 12.369-28.173 8.475-40.542L79.17 131.402c-13.514-43.52 10.765-67.57 54.056-53.368l67.571 22.218c11.453 3.665 28.631 1.145 38.252-5.956l70.548-50.85c38.023-27.486 68.484-11.452 67.568 35.504Z"/><path stroke="currentColor" stroke-linecap="round" stroke-linejoin="round" stroke-width="30" d="m483 488.042-69.4-69.403"/></svg>