<svg xmlns="http://www.w3.org/2000/svg" fill="none" viewBox="0 0 512 512"><path stroke="currentColor" stroke-linecap="round" stroke-linejoin="round" stroke-width="30" d="M226.502 30.502c16.53-13.933 43.216-13.933 59.275 0l37.312 31.88c7.085 5.905 20.546 10.864 29.992 10.864h40.146c25.033 0 45.579 20.545 45.579 45.578v40.146c0 9.447 4.959 22.671 10.863 29.756l31.881 37.312c13.933 16.531 13.933 43.217 0 59.275l-31.881 37.313c-5.904 7.084-10.863 20.309-10.863 29.755v40.147c0 25.032-20.546 45.578-45.579 45.578h-40.146c-9.446 0-22.671 4.959-29.756 10.863l-37.312 31.881c-16.531 13.933-43.217 13.933-59.275 0l-37.314-31.881c-7.085-5.904-20.545-10.863-29.755-10.863h-41.328c-25.032 0-45.578-20.546-45.578-45.578v-40.383c0-9.21-4.723-22.671-10.627-29.519l-31.88-37.549c-13.698-16.295-13.698-42.744 0-59.039l31.88-37.548c5.904-7.085 10.627-20.31 10.627-29.52v-39.91c0-25.032 20.546-45.578 45.578-45.578h40.855c9.446 0 22.671-4.96 29.756-10.863l37.55-32.117Z"/><path stroke="var(--accent)" stroke-linecap="round" stroke-linejoin="round" stroke-width="50" d="M256 164.64v114.063"/><path stroke="var(--accent)" stroke-linecap="round" stroke-linejoin="round" stroke-width="66.667" d="M255.863 350.497h.213"/></svg>