<svg width="25" height="41" viewBox="0 0 25 41" fill="none" xmlns="http://www.w3.org/2000/svg">
<path fill-rule="evenodd" clip-rule="evenodd" d="M12.5 0C19.4036 0 25 5.52561 25 12.3418C25 19.158 12.5 41 12.5 41C12.5 41 1.63998e-05 19.158 0 12.3418C0 5.52561 5.59644 5.92722e-08 12.5 0ZM8.69505 3.59442C8.6051 3.59702 8.51668 3.61869 8.43574 3.65804L8.29669 3.72764C8.16796 3.78684 8.06284 3.88772 7.99826 4.01396C7.93369 4.14022 7.91336 4.2846 7.94064 4.42379C8.04354 4.94452 8.24376 5.46255 8.63591 5.70064L11.4089 7.5107C11.5136 7.57888 11.5995 7.67219 11.659 7.78208C11.7185 7.89198 11.7497 8.01508 11.7497 8.14009V8.45194C11.7496 8.48919 11.7524 8.52638 11.758 8.56321L5.86165 6.49283C5.79974 6.48737 5.73736 6.49723 5.68014 6.52151C5.62293 6.54578 5.57248 6.58371 5.53335 6.63203L4.62396 7.85601C4.48631 8.04257 4.61698 8.28752 4.87144 8.32096C5.74616 8.43234 6.6404 8.63427 6.96999 8.98096L10.5037 12.7013C10.5194 12.716 10.533 12.7329 10.544 12.7515C10.5744 12.8041 10.5867 12.8653 10.5792 12.9256C10.5716 12.9859 10.5446 13.0421 10.5021 13.0856L6.87824 16.8574C6.54449 17.2069 5.69892 17.4005 4.80335 17.5245C4.55027 17.5607 4.42094 17.8042 4.55997 17.9894L5.47087 19.2064C5.51031 19.2547 5.56098 19.2926 5.61842 19.3169C5.67585 19.3411 5.7383 19.351 5.80039 19.3456C7.26613 19.2439 9.61914 18.2957 9.61914 18.2957L11.8956 17.5397C12.063 17.4808 12.2274 17.4134 12.3879 17.3378C12.4216 17.3177 12.4601 17.3071 12.4992 17.3071C12.5384 17.3072 12.5768 17.3177 12.6104 17.3378C12.7709 17.4136 12.9353 17.4811 13.1028 17.5397L15.3806 18.2902C15.3806 18.2902 17.7336 19.2384 19.1993 19.34C19.2614 19.3455 19.324 19.3356 19.3814 19.3114C19.4388 19.2871 19.4894 19.2491 19.5288 19.2008L20.4397 17.9839C20.5788 17.7987 20.4509 17.5551 20.1979 17.5161C19.3023 17.3922 18.4567 17.1985 18.123 16.8491L14.4989 13.0772C14.4552 13.0345 14.4272 12.9782 14.4196 12.9176C14.412 12.8568 14.4253 12.7953 14.4572 12.7431C14.4678 12.7243 14.4814 12.7073 14.4976 12.6929L18.0312 8.97827C18.3594 8.63158 19.2549 8.42966 20.1296 8.31827C20.3771 8.28485 20.5163 8.03974 20.3773 7.85317L19.4566 6.63621C19.4175 6.58789 19.3671 6.54997 19.3099 6.52569C19.2526 6.50141 19.1902 6.49155 19.1283 6.49701L13.232 8.56739C13.2376 8.53056 13.2405 8.49338 13.2405 8.45612V8.14561C13.2404 8.0206 13.2715 7.89751 13.331 7.7876C13.3905 7.67772 13.4764 7.58441 13.581 7.51622L16.3541 5.70617C16.7532 5.46808 16.9534 4.95017 17.0494 4.42947C17.0766 4.29029 17.0564 4.14589 16.9919 4.01963C16.9273 3.89336 16.8221 3.79238 16.6933 3.73317L16.5459 3.66357C16.4668 3.62777 16.3812 3.60872 16.2943 3.60741C16.2075 3.6061 16.1213 3.62255 16.0411 3.65595C15.9609 3.68936 15.8885 3.73898 15.8282 3.80157C15.7679 3.8642 15.721 3.93861 15.6907 4.02008C15.663 4.09316 15.6304 4.16431 15.5933 4.23307C15.5483 4.31482 15.4856 4.38549 15.4098 4.43992C15.3341 4.49435 15.2471 4.53121 15.1554 4.54776L12.7147 4.98911C12.6688 4.9967 12.6222 5.00049 12.5757 5.00031H12.4366C12.39 5.00034 12.3435 4.99655 12.2976 4.98911L9.84994 4.54776C9.75855 4.53168 9.67183 4.49554 9.59609 4.44187C9.52034 4.38818 9.45752 4.31822 9.412 4.23725C9.37488 4.16849 9.34234 4.09734 9.31465 4.02426C9.28549 3.93902 9.23851 3.86088 9.17696 3.79515C9.11541 3.72944 9.04061 3.67757 8.95753 3.64296C8.87446 3.60835 8.78498 3.59182 8.69505 3.59442Z" fill="url(#paint0_linear_4_103)"/>
<defs>
<linearGradient id="paint0_linear_4_103" x1="12.5" y1="0" x2="12.5" y2="39" gradientUnits="userSpaceOnUse">
<stop stop-color="#EDE082"/>
<stop offset="1" stop-color="#B88E2E"/>
</linearGradient>
</defs>
</svg>
