<svg width="25" height="41" viewBox="0 0 25 41" fill="none" xmlns="http://www.w3.org/2000/svg">
<mask id="path-1-inside-1_110_45" fill="white">
<path fill-rule="evenodd" clip-rule="evenodd" d="M12.5 0C19.4036 0 25 5.52561 25 12.3418C25 19.158 12.5 41 12.5 41C12.5 41 1.63998e-05 19.158 0 12.3418C0 5.52561 5.59644 5.92722e-08 12.5 0Z"/>
</mask>
<path fill-rule="evenodd" clip-rule="evenodd" d="M12.5 0C19.4036 0 25 5.52561 25 12.3418C25 19.158 12.5 41 12.5 41C12.5 41 1.63998e-05 19.158 0 12.3418C0 5.52561 5.59644 5.92722e-08 12.5 0Z" fill="white"/>
<path d="M12.5 0C14.1989 0.19873 15.8156 0.730132 17.2349 1.53343C21.2957 3.79275 23.5484 8.25928 23.142 12.3418C20.8399 21.0976 14.6914 30.6157 9.89624 39.5099C9.89624 39.5099 9.89624 39.5099 9.89624 39.5099L15.1038 39.5099C10.3086 30.6157 4.16014 21.0976 1.85795 12.3418C1.45165 8.25928 3.7043 3.79275 7.76514 1.53343C9.18444 0.730133 10.8011 0.19873 12.5 0C10.8023 -0.201641 9.02136 -0.0485286 7.31733 0.485061C2.46587 1.92518 -1.57426 6.74082 -1.85795 12.3418C-0.538942 24.2725 4.92959 33.035 9.89624 42.4901C9.89624 42.4901 9.89624 42.4901 9.89624 42.4901C11.1929 44.7559 13.8071 44.7559 15.1038 42.4901C20.0704 33.035 25.5389 24.2725 26.858 12.3418C26.5743 6.74081 22.5341 1.92518 17.6827 0.485061C15.9786 -0.048529 14.1977 -0.201641 12.5 0Z" fill="black" mask="url(#path-1-inside-1_110_45)"/>
<path d="M16.9679 14.2212L16.4553 14.9164C16.4331 14.9441 16.4046 14.9657 16.3723 14.9796C16.3399 14.9935 16.3048 14.9991 16.2698 14.996C15.445 14.9379 14.121 14.3962 14.121 14.3962L12.8392 13.9674C12.7449 13.9339 12.6524 13.8954 12.5621 13.8521C12.5432 13.8406 12.5216 13.8345 12.4995 13.8345C12.4775 13.8345 12.4559 13.8406 12.4369 13.8521C12.3466 13.8953 12.2541 13.9338 12.1599 13.9674L10.8789 14.3994C10.8789 14.3994 9.55483 14.9411 8.73003 14.9992C8.69507 15.0023 8.65991 14.9967 8.62758 14.9828C8.59526 14.9689 8.56676 14.9472 8.54456 14.9196L8.032 14.2244C7.95374 14.1186 8.02652 13.9794 8.16894 13.9587C8.6729 13.8879 9.14869 13.7773 9.3365 13.5776L11.3758 11.4227C11.3997 11.3979 11.4149 11.3657 11.4191 11.3313C11.4234 11.2968 11.4164 11.2619 11.3993 11.2318C11.3931 11.2212 11.3854 11.2116 11.3766 11.2032L9.38814 9.07764C9.20268 8.87956 8.69951 8.76422 8.20729 8.70058C8.06408 8.68149 7.99052 8.54148 8.06799 8.43489L8.57978 7.73567C8.6018 7.70805 8.63016 7.68636 8.66236 7.67249C8.69456 7.65862 8.72962 7.653 8.76446 7.65612L12.0824 8.83899C12.0793 8.81793 12.0777 8.79666 12.0777 8.77536V8.59717C12.0778 8.52575 12.0603 8.45545 12.0268 8.39266C11.9933 8.32986 11.9449 8.27657 11.886 8.23761L10.3256 7.20349C10.105 7.06747 9.99227 6.77155 9.93436 6.47404C9.919 6.39451 9.93041 6.31204 9.96675 6.2399C10.0031 6.16775 10.0622 6.11013 10.1347 6.0763L10.2129 6.03653C10.2585 6.01404 10.3082 6.00164 10.3589 6.00015C10.4095 5.99866 10.4598 6.00812 10.5066 6.0279C10.5533 6.04768 10.5954 6.07733 10.6301 6.11488C10.6647 6.15243 10.6911 6.19704 10.7075 6.24574C10.7231 6.2875 10.7414 6.32816 10.7623 6.36745C10.7879 6.41371 10.8233 6.45362 10.8659 6.4843C10.9086 6.51498 10.9573 6.53565 11.0088 6.54484L12.3861 6.797C12.4119 6.80126 12.4381 6.80339 12.4643 6.80337H12.5426C12.5688 6.80347 12.595 6.80134 12.6208 6.797L13.9942 6.54484C14.0458 6.53539 14.0948 6.51435 14.1374 6.48325C14.1801 6.45215 14.2153 6.41177 14.2407 6.36506C14.2616 6.32577 14.2799 6.28511 14.2955 6.24335C14.3126 6.19681 14.3389 6.15433 14.3728 6.11855C14.4067 6.08278 14.4475 6.05446 14.4926 6.03537C14.5378 6.01628 14.5863 6.00681 14.6351 6.00756C14.684 6.0083 14.7322 6.01925 14.7767 6.03971L14.8597 6.07948C14.9321 6.11331 14.9913 6.17094 15.0276 6.24308C15.064 6.31522 15.0754 6.39769 15.06 6.47722C15.006 6.77473 14.8933 7.07065 14.6687 7.20668L13.1084 8.24079C13.0495 8.27975 13.0011 8.33305 12.9676 8.39584C12.9341 8.45863 12.9166 8.52893 12.9166 8.60035V8.77774C12.9167 8.79904 12.9151 8.82032 12.9119 8.84138L16.2299 7.65851C16.2648 7.65539 16.2998 7.66101 16.332 7.67488C16.3642 7.68875 16.3926 7.71044 16.4146 7.73805L16.9326 8.4333C17.0109 8.53989 16.9326 8.6799 16.7933 8.69899C16.3011 8.76263 15.7972 8.87797 15.6125 9.07605L13.624 11.1984C13.615 11.2066 13.6073 11.2162 13.6014 11.227C13.5834 11.2568 13.576 11.292 13.5802 11.3266C13.5845 11.3613 13.6002 11.3935 13.6248 11.4179L15.6641 13.5729C15.8519 13.7725 16.3277 13.8831 16.8317 13.9539C16.9741 13.9762 17.0461 14.1154 16.9679 14.2212Z" fill="black"/>
</svg>
