<svg width="90" height="90" viewBox="0 0 90 90" fill="none" xmlns="http://www.w3.org/2000/svg">
<path d="M45 0C69.8528 0 90 20.1472 90 45C90 69.8528 69.8528 90 45 90C20.1472 90 0 69.8528 0 45C0 20.1472 20.1472 0 45 0ZM45.6201 13.0996C39.0202 13.0996 33.9203 15.11 30.3203 19.1299C26.7803 23.1498 25.0098 28.7899 25.0098 36.0498V77H33.4697V36.0498C33.4698 30.71 34.4904 26.8703 36.5303 24.5303C38.6303 22.1903 41.7506 21.0195 45.8906 21.0195C49.4903 21.0196 52.3704 21.9497 54.5303 23.8096C56.7503 25.6696 57.8604 28.1304 57.8604 31.1904C57.8603 34.4301 56.75 37.2197 54.5303 39.5596C52.3103 41.8995 48.3203 43.0703 42.5605 43.0703H37.4297V50.9902H42.29C47.15 50.9902 50.8702 52.2804 53.4502 54.8604C56.0301 57.3803 57.3203 60.9206 57.3203 65.4805V77H65.7803V70.25C65.7803 62.8702 65.0004 57.5902 63.4404 54.4102C61.9405 51.1702 58.9402 48.6804 54.4404 46.9404V46.5801C58.7602 45.2001 61.8201 43.3101 63.6201 40.9102C65.4201 38.5102 66.3203 35.4196 66.3203 31.6396C66.3202 25.7598 64.5199 21.1999 60.9199 17.96C57.3799 14.7201 52.28 13.0996 45.6201 13.0996Z" fill="#E5A000"/>
</svg>
