<svg xmlns="http://www.w3.org/2000/svg" xml:space="preserve" fill-rule="evenodd" stroke-linejoin="round" stroke-miterlimit="2" clip-rule="evenodd" viewBox="0 0 93 93">
<style>
	@media (prefers-color-scheme: dark) {
		.sale {fill: #e5a9c2;}
		.rent {fill: #b1c1fc;}
		.invest {fill: #2b61f7;}
	}
</style>
<path class="invest" fill="#F7B32BFF" d="M91.597 47.135C91.257 71.734 71.18 91.601 46.5 91.601a44.867 44.867 0 0 1-21.793-5.613l22.162-38.853h44.728Z"/><path d="M91.597 47.135C91.257 71.734 71.18 91.601 46.5 91.601a44.867 44.867 0 0 1-21.793-5.613l22.162-38.853h44.728ZM84.963 53.2C81.784 71.557 65.761 85.537 46.5 85.537c-4.646 0-9.104-.813-13.239-2.306L50.391 53.2h34.572Z"/><path class="sale" fill="#A9E5BBFF" d="M45.769 46.5 23.604 85.357C10.317 77.505 1.399 63.036 1.399 46.5c0-16.536 8.918-31.005 22.205-38.857L45.769 46.5Z"/><path d="M45.769 46.5 23.604 85.357C10.317 77.505 1.399 63.036 1.399 46.5c0-16.536 8.918-31.005 22.205-38.857L45.769 46.5Zm-6.982 0L21.63 76.579C12.979 69.415 7.463 58.597 7.463 46.5c0-12.097 5.516-22.915 14.167-30.079L38.787 46.5Z"/><path class="rent" fill="#FCF6B1FF" d="M24.707 7.012A44.867 44.867 0 0 1 46.5 1.399c24.68 0 44.757 19.867 45.097 44.466H46.869L24.707 7.012Z"/><path d="M24.707 7.012A44.867 44.867 0 0 1 46.5 1.399c24.68 0 44.757 19.867 45.097 44.466H46.869L24.707 7.012Zm8.554 2.757A38.908 38.908 0 0 1 46.5 7.463c19.261 0 35.284 13.98 38.463 32.337H50.391L33.261 9.769Z"/></svg>