<svg xmlns="http://www.w3.org/2000/svg" xml:space="preserve" fill-rule="evenodd" stroke-linejoin="round" stroke-miterlimit="2" clip-rule="evenodd" viewBox="0 0 93 93">
<style>
	@media (prefers-color-scheme: dark) {
		.sale {fill: #e5a9c2;}
		.rent {fill: #b1c1fc;}
	}
</style>
<path class="rent" fill="#FCF6B1FF" d="M78.831 15.067c7.902 8.127 12.77 19.216 12.77 31.433 0 24.892-20.209 45.101-45.101 45.101-12.217 0-23.306-4.868-31.433-12.77l63.764-63.764Z"/><path d="M78.831 15.067c7.902 8.127 12.77 19.216 12.77 31.433 0 24.892-20.209 45.101-45.101 45.101-12.217 0-23.306-4.868-31.433-12.77l63.764-63.764Zm-.404 8.98a38.835 38.835 0 0 1 7.11 22.453c0 21.545-17.492 39.037-39.037 39.037-8.355 0-16.1-2.631-22.453-7.11l54.38-54.38Z"/><path class="sale" fill="#A9E5BBFF" d="M14.169 77.933C6.267 69.806 1.399 58.717 1.399 46.5c0-24.892 20.209-45.101 45.101-45.101 12.217 0 23.306 4.868 31.433 12.77L14.169 77.933Z"/><path d="M14.169 77.933C6.267 69.806 1.399 58.717 1.399 46.5c0-24.892 20.209-45.101 45.101-45.101 12.217 0 23.306 4.868 31.433 12.77L14.169 77.933Zm.404-8.98A38.835 38.835 0 0 1 7.463 46.5c0-21.545 17.492-39.037 39.037-39.037 8.355 0 16.1 2.631 22.453 7.11l-54.38 54.38Z"/></svg>