<svg width="90" height="90" viewBox="0 0 90 90" fill="none" xmlns="http://www.w3.org/2000/svg">
<path d="M45 0C69.8528 0 90 20.1472 90 45C90 69.8528 69.8528 90 45 90C20.1472 90 0 69.8528 0 45C0 20.1472 20.1472 0 45 0ZM26.1592 22.9004C22.5053 22.9004 19.5443 23.782 17.2764 25.5459C15.0084 27.2679 13.874 29.8929 13.874 33.4209C13.874 39.1328 17.171 43.2485 23.7646 45.7686C23.9746 45.8526 24.2695 45.958 24.6475 46.084C26.0332 46.5879 27.2089 47.0713 28.1748 47.5332C29.1828 47.9952 30.1492 48.5409 31.0732 49.1709C32.0392 49.8009 32.7743 50.5575 33.2783 51.4395C33.7821 52.2794 34.0342 53.2666 34.0342 54.4004C34.0341 56.7102 33.1311 58.4745 31.3252 59.6924C29.5192 60.8683 27.188 61.4561 24.332 61.4561H14.6934V67H24.5215C25.6133 67 26.4531 66.9785 27.041 66.9365C28.4269 66.8945 29.8338 66.6426 31.2617 66.1807C32.7317 65.6767 34.1599 64.963 35.5459 64.0391C36.9319 63.0731 38.0662 61.7708 38.9482 60.1328C39.8302 58.4529 40.2715 56.5628 40.2715 54.4629C40.2715 52.573 40.0186 50.9143 39.5146 49.4863C39.0106 48.0163 38.2551 46.8185 37.2471 45.8945C36.2391 44.9706 35.2306 44.2364 34.2227 43.6904C33.2148 43.1025 31.9971 42.5352 30.5693 41.9893C27.3774 40.8133 24.8363 39.5949 22.9463 38.335C21.0984 37.033 20.1739 35.4582 20.1738 33.6104C20.1738 30.1664 22.2951 28.4443 26.5371 28.4443H37.6885V22.9004H26.1592ZM61.3076 22.2695C56.6876 22.2695 53.1167 23.6772 50.5967 26.4912C48.1189 29.3052 46.8799 33.2532 46.8799 38.335V67H52.8018V38.335C52.8018 34.597 53.5163 31.9085 54.9443 30.2705C56.4143 28.6328 58.5983 27.8145 61.4961 27.8145C64.0159 27.8145 66.032 28.4648 67.5439 29.7666C69.0979 31.0685 69.8749 32.7908 69.875 34.9326C69.875 37.2006 69.0979 39.154 67.5439 40.792C65.9899 42.4299 63.197 43.249 59.165 43.249H55.5742V48.793H58.9766C62.3783 48.793 64.9822 49.6961 66.7881 51.502C68.594 53.2659 69.497 55.7438 69.4971 58.9355V67H75.4189V62.2754C75.4189 57.1094 74.8732 53.4125 73.7812 51.1865C72.7312 48.9188 70.6311 47.1759 67.4814 45.958V45.7061C70.5052 44.7401 72.6472 43.4172 73.9072 41.7373C75.1672 40.0573 75.7969 37.894 75.7969 35.248C75.7969 31.1321 74.5375 27.9399 72.0176 25.6719C69.5397 23.4039 65.9694 22.2696 61.3076 22.2695Z" fill="url(#paint0_linear_1_135)"/>
<defs>
<linearGradient id="paint0_linear_1_135" x1="90" y1="45" x2="0" y2="45" gradientUnits="userSpaceOnUse">
<stop stop-color="#E5A000"/>
<stop offset="0.519231" stop-color="#E5A000"/>
<stop offset="0.519331" stop-color="#14AE5C"/>
<stop offset="1" stop-color="#14AE5C"/>
</linearGradient>
</defs>
</svg>
