<svg width="90" height="90" viewBox="0 0 90 90" fill="none" xmlns="http://www.w3.org/2000/svg">
<path d="M45 0C69.8528 0 90 20.1472 90 45C90 69.8528 69.8528 90 45 90C20.1472 90 0 69.8528 0 45C0 20.1472 20.1472 0 45 0ZM43.9238 14C38.704 14.0001 34.4743 15.2603 31.2344 17.7803C27.9944 20.2403 26.374 23.9903 26.374 29.0303C26.3741 37.19 31.0842 43.07 40.5039 46.6699C40.8039 46.7899 41.2246 46.9401 41.7646 47.1201C43.7445 47.8401 45.4248 48.5305 46.8047 49.1904C48.2445 49.8504 49.6245 50.6304 50.9443 51.5303C52.324 52.4301 53.3738 53.5098 54.0938 54.7695C54.8137 55.9695 55.1738 57.38 55.1738 59C55.1738 62.2998 53.8843 64.8196 51.3047 66.5596C48.7247 68.2395 45.3943 69.08 41.3145 69.0801H27.5439V77H41.584C43.144 77 44.3446 76.9702 45.1846 76.9102C47.1643 76.8501 49.1741 76.49 51.2139 75.8301C53.3139 75.1101 55.354 74.0895 57.334 72.7695C59.3139 71.3896 60.9344 69.5303 62.1943 67.1904C63.4543 64.7904 64.084 62.0898 64.084 59.0898C64.084 56.3901 63.7238 54.0204 63.0039 51.9805C62.2839 49.8805 61.2046 48.1696 59.7646 46.8496C58.3247 45.5297 56.8843 44.4802 55.4443 43.7002C54.0044 42.8602 52.2645 42.0495 50.2246 41.2695C45.6646 39.5895 42.034 37.8498 39.334 36.0498C36.6942 34.1898 35.374 31.9397 35.374 29.2998C35.3741 24.38 38.4042 21.92 44.4639 21.9199H60.3945V14H43.9238Z" fill="#14AE5C"/>
</svg>
