<svg width="186" height="186" viewBox="0 0 186 186" fill="none" xmlns="http://www.w3.org/2000/svg">
<g clip-path="url(#clip0_2_56)">
<path d="M92.95 182.95C142.656 182.95 182.95 142.656 182.95 92.95C182.95 43.2444 142.656 2.95 92.95 2.95C43.2443 2.95 2.94995 43.2444 2.94995 92.95C2.94995 142.656 43.2443 182.95 92.95 182.95Z" stroke="url(#paint0_linear_2_56)" stroke-width="5.90053"/>
<path d="M150.25 139.71L143.7 148.45C143.416 148.797 143.052 149.07 142.639 149.244C142.226 149.418 141.777 149.489 141.33 149.45C130.79 148.72 113.87 141.91 113.87 141.91L97.49 136.52C96.2855 136.099 95.1038 135.615 93.95 135.07C93.7082 134.926 93.4317 134.849 93.15 134.849C92.8683 134.849 92.5919 134.926 92.35 135.07C91.1954 135.613 90.0139 136.097 88.81 136.52L72.44 141.95C72.44 141.95 55.52 148.76 44.98 149.49C44.5334 149.529 44.084 149.458 43.6709 149.284C43.2578 149.11 42.8936 148.837 42.61 148.49L36.06 139.75C35.06 138.42 35.99 136.67 37.81 136.41C44.25 135.52 50.33 134.13 52.73 131.62L78.79 104.53C79.0952 104.218 79.2897 103.814 79.3439 103.38C79.3981 102.947 79.3089 102.508 79.09 102.13C79.0108 101.997 78.9132 101.876 78.8 101.77L53.39 75.05C51.02 72.56 44.59 71.11 38.3 70.31C36.47 70.07 35.53 68.31 36.52 66.97L43.06 58.18C43.3415 57.8329 43.7039 57.5602 44.1154 57.3858C44.5268 57.2115 44.9748 57.1408 45.42 57.18L87.82 72.05C87.7798 71.7852 87.7597 71.5178 87.76 71.25V69.01C87.7604 68.1121 87.5365 67.2284 87.1087 66.4391C86.6808 65.6497 86.0625 64.9797 85.31 64.49L65.37 51.49C62.55 49.78 61.11 46.06 60.37 42.32C60.1738 41.3202 60.3196 40.2835 60.7839 39.3765C61.2482 38.4696 62.0041 37.7453 62.93 37.32L63.93 36.82C64.5121 36.5373 65.1477 36.3814 65.7945 36.3627C66.4414 36.344 67.0849 36.4629 67.6824 36.7115C68.2799 36.9602 68.8177 37.3329 69.2604 37.805C69.703 38.2771 70.0403 38.8378 70.25 39.45C70.4492 39.975 70.683 40.4861 70.95 40.98C71.2774 41.5616 71.7297 42.0633 72.2744 42.449C72.8191 42.8346 73.4427 43.0945 74.1 43.21L91.7 46.38C92.0307 46.4335 92.3651 46.4602 92.7 46.46H93.7C94.035 46.4613 94.3695 46.4345 94.7 46.38L112.25 43.21C112.91 43.0912 113.535 42.8267 114.08 42.4357C114.625 42.0448 115.076 41.5372 115.4 40.95C115.667 40.4561 115.901 39.945 116.1 39.42C116.319 38.8349 116.655 38.3009 117.088 37.8511C117.522 37.4014 118.043 37.0454 118.619 36.8054C119.196 36.5654 119.816 36.4464 120.44 36.4558C121.065 36.4652 121.681 36.6027 122.25 36.86L123.31 37.36C124.236 37.7853 124.992 38.5096 125.456 39.4166C125.92 40.3235 126.066 41.3602 125.87 42.36C125.18 46.1 123.74 49.82 120.87 51.53L100.93 64.53C100.177 65.0197 99.5592 65.6897 99.1314 66.4791C98.7035 67.2684 98.4796 68.1521 98.48 69.05V71.28C98.4803 71.5478 98.4602 71.8152 98.42 72.08L140.82 57.21C141.265 57.1708 141.713 57.2415 142.125 57.4158C142.536 57.5902 142.899 57.8629 143.18 58.21L149.8 66.95C150.8 68.29 149.8 70.05 148.02 70.29C141.73 71.09 135.29 72.54 132.93 75.03L107.52 101.71C107.404 101.813 107.306 101.935 107.23 102.07C107.001 102.445 106.906 102.886 106.96 103.322C107.015 103.758 107.216 104.163 107.53 104.47L133.59 131.56C135.99 134.07 142.07 135.46 148.51 136.35C150.33 136.63 151.25 138.38 150.25 139.71Z" fill="url(#paint1_linear_2_56)" stroke="url(#paint2_linear_2_56)" stroke-width="3.93369" stroke-linecap="round" stroke-linejoin="round"/>
</g>
<defs>
<linearGradient id="paint0_linear_2_56" x1="-4.87019e-05" y1="92.95" x2="185.9" y2="92.95" gradientUnits="userSpaceOnUse">
<stop stop-color="#C49A2F"/>
<stop offset="0.12" stop-color="#B1872D"/>
<stop offset="0.31" stop-color="#FAF394"/>
<stop offset="0.41" stop-color="#E5D06D"/>
<stop offset="0.56" stop-color="#C49A2F"/>
<stop offset="0.59" stop-color="#CEAA41"/>
<stop offset="0.65" stop-color="#E1CA65"/>
<stop offset="0.7" stop-color="#EFE07F"/>
<stop offset="0.75" stop-color="#F7EE8F"/>
<stop offset="0.79" stop-color="#FAF394"/>
<stop offset="0.88" stop-color="#B1872D"/>
<stop offset="1" stop-color="#C49A2F"/>
</linearGradient>
<linearGradient id="paint1_linear_2_56" x1="36" y1="36" x2="151" y2="150" gradientUnits="userSpaceOnUse">
<stop stop-color="#C49A2F"/>
<stop offset="0.12" stop-color="#B1872D"/>
<stop offset="0.3" stop-color="#FAF394"/>
<stop offset="0.38" stop-color="#E5D06D"/>
<stop offset="0.5" stop-color="#C49A2F"/>
<stop offset="0.52" stop-color="#CEAA41"/>
<stop offset="0.57" stop-color="#E1CA65"/>
<stop offset="0.62" stop-color="#EFE07F"/>
<stop offset="0.67" stop-color="#F7EE8F"/>
<stop offset="0.7" stop-color="#FAF394"/>
<stop offset="0.88" stop-color="#B1872D"/>
<stop offset="1" stop-color="#C49A2F"/>
</linearGradient>
<linearGradient id="paint2_linear_2_56" x1="33.68" y1="92.95" x2="152.64" y2="92.95" gradientUnits="userSpaceOnUse">
<stop stop-color="#C49A2F"/>
<stop offset="0.12" stop-color="#B1872D"/>
<stop offset="0.3" stop-color="#FAF394"/>
<stop offset="0.38" stop-color="#E5D06D"/>
<stop offset="0.5" stop-color="#C49A2F"/>
<stop offset="0.52" stop-color="#CEAA41"/>
<stop offset="0.57" stop-color="#E1CA65"/>
<stop offset="0.62" stop-color="#EFE07F"/>
<stop offset="0.67" stop-color="#F7EE8F"/>
<stop offset="0.7" stop-color="#FAF394"/>
<stop offset="0.88" stop-color="#B1872D"/>
<stop offset="1" stop-color="#C49A2F"/>
</linearGradient>
<clipPath id="clip0_2_56">
<rect width="185.9" height="185.9" fill="white"/>
</clipPath>
</defs>
</svg>
