<svg width="187" height="183" viewBox="0 0 187 183" fill="none" xmlns="http://www.w3.org/2000/svg">
<g clip-path="url(#clip0_2_50)">
<path d="M182.44 164.68L172.17 178.36C171.73 178.906 171.162 179.335 170.517 179.609C169.871 179.883 169.168 179.993 168.47 179.93C151.97 178.79 125.47 168.13 125.47 168.13L99.8401 159.7C97.9596 159.033 96.114 158.272 94.3101 157.42C93.9099 157.243 93.485 157.128 93.0501 157.08C92.6149 157.127 92.1898 157.242 91.7901 157.42C89.9862 158.272 88.1405 159.033 86.2601 159.7L60.6201 168.13C60.6201 168.13 34.1401 178.79 17.6201 179.93C16.9203 179.993 16.2158 179.883 15.5688 179.609C14.9218 179.335 14.3521 178.906 13.9101 178.36L3.72007 164.68C2.16007 162.61 3.61007 159.86 6.46007 159.47C16.5401 158.07 26.0601 155.9 29.8101 151.97L70.6001 109.57C71.0878 109.086 71.3984 108.452 71.4818 107.77C71.5653 107.088 71.4167 106.397 71.0601 105.81C70.9363 105.604 70.7849 105.415 70.6101 105.25L30.8501 63.51C27.1701 59.61 17.0701 57.33 7.23007 56.07C4.37007 55.71 2.89007 52.95 4.44007 50.86L14.6801 37.1C15.1157 36.5505 15.6808 36.1176 16.3248 35.8402C16.9687 35.5627 17.6715 35.4492 18.3701 35.51L84.7201 58.77C84.6595 58.3561 84.6294 57.9383 84.6301 57.52V54.05C84.6316 52.6432 84.281 51.2584 83.6103 50.0217C82.9396 48.7851 81.9701 47.736 80.7901 46.97L49.5901 26.62C45.1701 23.95 42.9301 18.14 41.8501 12.28C41.5584 10.7245 41.7934 9.1162 42.5177 7.70912C43.2421 6.30204 44.4146 5.1764 45.8501 4.51L47.5101 3.74C48.4035 3.33023 49.3718 3.10905 50.3545 3.09028C51.3372 3.07151 52.3132 3.25556 53.2216 3.63093C54.13 4.00629 54.9512 4.56492 55.634 5.27192C56.3168 5.97892 56.8465 6.8191 57.1901 7.74C57.4943 8.56716 57.8621 9.36955 58.2901 10.14C58.7928 11.0519 59.4911 11.8412 60.3348 12.4515C61.1784 13.0618 62.1467 13.4779 63.1701 13.67L90.7101 18.67C91.2086 18.7579 91.7139 18.8014 92.2201 18.8H93.8701C94.3663 18.8019 94.8617 18.7584 95.3501 18.67L122.91 13.67C123.938 13.4879 124.914 13.0805 125.766 12.4771C126.618 11.8738 127.327 11.0893 127.84 10.18C128.268 9.40955 128.636 8.60716 128.94 7.78001C129.284 6.8591 129.813 6.01892 130.496 5.31192C131.179 4.60492 132 4.04629 132.909 3.67092C133.817 3.29556 134.793 3.11151 135.776 3.13028C136.758 3.14905 137.727 3.37023 138.62 3.78001L140.27 4.55001C141.707 5.21501 142.88 6.34043 143.605 7.7479C144.329 9.15538 144.563 10.7644 144.27 12.32C143.19 18.18 140.95 23.99 136.53 26.66L105.37 46.97C104.19 47.736 103.221 48.7851 102.55 50.0217C101.879 51.2584 101.529 52.6432 101.53 54.05V57.51C101.531 57.9283 101.501 58.3461 101.44 58.76L167.79 35.51C168.488 35.449 169.19 35.5613 169.833 35.8369C170.477 36.1126 171.043 36.543 171.48 37.09L181.71 50.85C183.27 52.94 181.79 55.7 178.93 56.06C169.09 57.32 159.02 59.6 155.31 63.48L115.55 105.24C115.372 105.403 115.221 105.591 115.1 105.8C114.733 106.384 114.578 107.077 114.662 107.762C114.745 108.447 115.063 109.082 115.56 109.56L156.35 151.96C160.1 155.89 169.62 158.06 179.7 159.46C182.55 159.86 184 162.61 182.44 164.68Z" fill="url(#paint0_linear_2_50)" stroke="url(#paint1_linear_2_50)" stroke-width="6.15591" stroke-linecap="round" stroke-linejoin="round"/>
</g>
<defs>
<linearGradient id="paint0_linear_2_50" x1="3" y1="3" x2="183" y2="180" gradientUnits="userSpaceOnUse">
<stop stop-color="#C49A2F"/>
<stop offset="0.12" stop-color="#B1872D"/>
<stop offset="0.3" stop-color="#FAF394"/>
<stop offset="0.38" stop-color="#E5D06D"/>
<stop offset="0.5" stop-color="#C49A2F"/>
<stop offset="0.52" stop-color="#CEAA41"/>
<stop offset="0.57" stop-color="#E1CA65"/>
<stop offset="0.62" stop-color="#EFE07F"/>
<stop offset="0.67" stop-color="#F7EE8F"/>
<stop offset="0.7" stop-color="#FAF394"/>
<stop offset="0.88" stop-color="#B1872D"/>
<stop offset="1" stop-color="#C49A2F"/>
</linearGradient>
<linearGradient id="paint1_linear_2_50" x1="6.60056e-05" y1="91.51" x2="186.16" y2="91.51" gradientUnits="userSpaceOnUse">
<stop stop-color="#C49A2F"/>
<stop offset="0.12" stop-color="#B1872D"/>
<stop offset="0.3" stop-color="#FAF394"/>
<stop offset="0.38" stop-color="#E5D06D"/>
<stop offset="0.5" stop-color="#C49A2F"/>
<stop offset="0.52" stop-color="#CEAA41"/>
<stop offset="0.57" stop-color="#E1CA65"/>
<stop offset="0.62" stop-color="#EFE07F"/>
<stop offset="0.67" stop-color="#F7EE8F"/>
<stop offset="0.7" stop-color="#FAF394"/>
<stop offset="0.88" stop-color="#B1872D"/>
<stop offset="1" stop-color="#C49A2F"/>
</linearGradient>
<clipPath id="clip0_2_50">
<rect width="186.16" height="183.01" fill="white"/>
</clipPath>
</defs>
</svg>
