<?xml version="1.0" encoding="UTF-8" standalone="no"?>
<!DOCTYPE svg PUBLIC "-//W3C//DTD SVG 1.1//EN" "http://www.w3.org/Graphics/SVG/1.1/DTD/svg11.dtd">
<svg width="100%" height="100%" viewBox="0 0 909 530" version="1.1" xmlns="http://www.w3.org/2000/svg" xmlns:xlink="http://www.w3.org/1999/xlink" xml:space="preserve" xmlns:serif="http://www.serif.com/" style="fill-rule:evenodd;clip-rule:evenodd;stroke-linejoin:round;stroke-miterlimit:2;">
    <g transform="matrix(1,0,0,1,0,-0.141817)">
        <circle cx="248.2" cy="402.1" r="44.7" style="fill:rgb(74,230,26);"/>
    </g>
    <g transform="matrix(1,0,0,1,-145.5,-185.442)">
        <path d="M360.7,557.6C358.374,563.105 357.176,569.02 357.176,574.996C357.176,599.517 377.355,619.696 401.876,619.696C414.541,619.696 426.627,614.313 435.1,604.9C428.122,621.416 411.854,632.204 393.924,632.204C369.402,632.204 349.224,612.026 349.224,587.504C349.224,576.464 353.314,565.806 360.7,557.6Z" style="fill-opacity:0.2;fill-rule:nonzero;"/>
    </g>
    <g transform="matrix(1,0,0,1,0,-0.141817)">
        <path d="M248.3,402.1L248.4,402.1L250.6,528.8L246,528.8L248.3,402.1Z" style="fill:rgb(38,123,217);fill-rule:nonzero;"/>
    </g>
    <g transform="matrix(1,0,0,1,0,-0.141817)">
        <circle cx="157.8" cy="273.4" r="90.1" style="fill:rgb(74,230,26);"/>
    </g>
    <g transform="matrix(1,0,0,1,-145.5,-185.442)">
        <path d="M236.8,398.6C231.963,409.838 229.468,421.946 229.468,434.18C229.468,483.553 270.096,524.18 319.468,524.18C345.196,524.18 369.728,513.148 386.8,493.9C372.736,527.193 339.943,548.94 303.801,548.94C254.374,548.94 213.701,508.267 213.701,458.84C213.701,436.604 221.933,415.136 236.8,398.6Z" style="fill-opacity:0.2;fill-rule:nonzero;"/>
    </g>
    <g transform="matrix(1,0,0,1,0,-0.141817)">
        <path d="M158,273.4L158.3,273.4L162.7,528.8L153.3,528.8L158,273.4Z" style="fill:rgb(38,123,217);fill-rule:nonzero;"/>
    </g>
    <g transform="matrix(1,0,0,1,0,-0.141817)">
        <rect x="338.8" y="396.6" width="412.9" height="122.4" style="fill:rgb(242,94,13);fill-rule:nonzero;"/>
    </g>
    <g transform="matrix(1,0,0,1,0,-0.141817)">
        <rect x="521.2" y="421.9" width="48.1" height="97.1" style="fill:rgb(242,13,13);fill-rule:nonzero;"/>
    </g>
    <g transform="matrix(1,0,0,1,0,-0.141817)">
        <rect x="362.9" y="252.2" width="364.8" height="112.6" style="fill:rgb(242,94,13);fill-rule:nonzero;"/>
    </g>
    <g transform="matrix(1,0,0,1,0,-0.141817)">
        <path d="M764.7,259.1L326,259.1C324.021,259.03 322.43,257.383 322.43,255.402C322.43,254.428 322.815,253.492 323.5,252.8L443.4,137.5L443.4,87.3C443.452,85.345 445.045,83.752 447,83.7L470.7,83.7C472.693,83.699 474.346,85.308 474.4,87.3L474.4,107.7L483.4,99C513.993,69.634 562.669,68.844 594.2,97.2L767.2,252.7C767.946,253.399 768.37,254.377 768.37,255.4C768.37,257.419 766.718,259.084 764.7,259.1Z" style="fill:rgb(242,13,13);fill-rule:nonzero;"/>
    </g>
    <g transform="matrix(1,0,0,1,0,-0.141817)">
        <path d="M459.2,280.7C471.944,280.755 482.4,291.256 482.4,304L482.4,335.4L436,335.4L436,304C436,291.218 446.518,280.7 459.3,280.7L459.2,280.7ZM545.3,281.1C558.044,281.155 568.5,291.656 568.5,304.4L568.5,335.8L522,335.8L522,304.4C522,291.618 532.518,281.1 545.3,281.1ZM631.4,281.6C644.106,281.654 654.546,292.094 654.6,304.8L654.6,336.2L608.1,336.2L608.1,304.8C608.155,292.056 618.656,281.6 631.4,281.6ZM665.6,420.7C665.633,420.7 665.667,420.7 665.7,420.7C678.482,420.7 689,431.218 689,444L689,475.4L642.5,475.4L642.5,444C642.5,431.256 652.956,420.755 665.7,420.7L665.6,420.7ZM435.5,420.7C448.282,420.7 458.8,431.218 458.8,444L458.8,475.4L412.3,475.4L412.3,444C412.3,431.256 422.756,420.755 435.5,420.7Z" style="fill:rgb(242,175,13);fill-rule:nonzero;"/>
    </g>
    <g transform="matrix(1,0,0,1,0,-0.141817)">
        <path d="M812,398.5L734.6,364.3C734.192,364.113 733.749,364.01 733.3,364L364,364C363.591,363.992 363.184,364.06 362.8,364.2L278.5,398.5C277.324,399.035 276.566,400.212 276.566,401.504C276.566,403.252 277.954,404.712 279.7,404.8L301.6,404.8L301.6,517.4L299.1,517.4L299.1,528.8L791.2,528.8L791.2,517.4L787.2,517.4L787.2,404.8L810.6,404.8C810.608,404.8 810.617,404.8 810.625,404.8C812.436,404.8 813.925,403.31 813.925,401.5C813.925,400.212 813.171,399.037 812,398.5ZM780.7,517.4L308.2,517.4L308.2,404.8L780.7,404.8L780.7,517.4ZM428.6,330.9L488.2,330.9L488.2,340.7L428.6,340.7L428.6,330.9ZM515.9,330.9L575.5,330.9L575.5,340.7L515.9,340.7L515.9,330.9ZM603.2,330.9L662.8,330.9L662.8,340.7L603.2,340.7L603.2,330.9Z" style="fill:rgb(242,13,13);fill-rule:nonzero;"/>
    </g>
    <g transform="matrix(1,0,0,1,0,-0.141817)">
        <path d="M635.9,472.1L695.5,472.1L695.5,481.9L635.9,481.9L635.9,472.1ZM404.9,472.1L464.5,472.1L464.5,481.9L404.9,481.9L404.9,472.1Z" style="fill:rgb(242,13,13);fill-rule:nonzero;"/>
    </g>
    <g transform="matrix(1,0,0,1,0,-0.141817)">
        <path d="M908,529.3L1,529.3C0.451,529.3 0,528.849 0,528.3C-0,527.751 0.451,527.3 1,527.3L908,527.3C908.549,527.3 909,527.751 909,528.3C909,528.849 908.549,529.3 908,529.3ZM668,445L667.7,441.5C667.3,440.1 663.9,444.5 663.5,444.5C662.413,444.288 661.298,444.254 660.2,444.4C660.3,438.1 659.4,440.9 656.5,443.8C647.5,448.4 650.8,462.9 661.1,463C670.5,463.5 675.2,450.7 668,445Z" style="fill-rule:nonzero;"/>
    </g>
    <g transform="matrix(1,0,0,1,0,-0.141817)">
        <path d="M669.3,459.2C673,459.2 677.8,472.4 668.8,472.4C664.2,472.4 656.1,473.4 656.1,473.4C656.1,473.4 649.7,463.9 652.6,457.9L669.3,459.2Z" style="fill-rule:nonzero;"/>
    </g>
    <g transform="matrix(1,0,0,1,0,-0.141817)">
        <path d="M671.9,472.6C671.9,473.8 666.6,473.8 666.7,472.6C666.6,471.5 672,471.5 671.9,472.6Z" style="fill-rule:nonzero;"/>
    </g>
    <g transform="matrix(1,0,0,1,0,-0.141817)">
        <path d="M668,471.9C667.7,471.9 666.6,466.8 669.8,466C666.7,467.7 668.3,471.6 668,471.9Z" style="fill-rule:nonzero;"/>
    </g>
    <g transform="matrix(1,0,0,1,0,-0.141817)">
        <path d="M672.4,470.7L672,470.7L672.4,470.7ZM686,466.8C684.1,464.1 680.6,465.3 679.2,467.8C677.5,470.8 670.5,468.6 671.4,472.6C675.8,471.7 688.8,474.9 686,466.8Z" style="fill-rule:nonzero;"/>
    </g>
    <g transform="matrix(1,0,0,1,0,-0.141817)">
        <path d="M660.6,462C657.6,462.6 652.6,459 652.5,458C652.492,457.984 652.488,457.967 652.488,457.95C652.488,457.889 652.539,457.838 652.6,457.838C652.642,457.838 652.681,457.862 652.7,457.9C653.69,459.272 655.04,460.345 656.6,461C659,462.3 663.5,462.3 669.4,459.2C666.823,461.024 663.757,462.034 660.6,462.1L660.6,462ZM661.1,455.7C660.5,456 659.9,454.4 660.5,454.9C660.5,455.229 660.771,455.5 661.1,455.5C661.7,455.5 661.6,455 661.9,454.8C662.3,455.1 661.6,455.8 661.1,455.8L661.1,455.7ZM660,472.6C659.7,472.6 658,466.4 657.8,466.3C657.8,466.245 657.845,466.2 657.9,466.2C658.2,466 659.9,472.4 660.1,472.5C660.108,472.516 660.112,472.533 660.112,472.55C660.112,472.611 660.061,472.662 660,472.662C659.958,472.662 659.919,472.638 659.9,472.6L660,472.6Z" style="fill-rule:nonzero;"/>
    </g>
    <g transform="matrix(1,0,0,1,0,-0.141817)">
        <path d="M661,473.4C661,474.5 655.6,474.5 655.7,473.4C655.7,472.3 661,472.3 660.9,473.4L661,473.4Z" style="fill-rule:nonzero;"/>
    </g>
    <g transform="matrix(1,0,0,1,0,-0.141817)">
        <path d="M662.2,453.3C662.2,453.8 660.2,453.8 660.2,453.3C660.2,452.8 662.2,452.8 662.2,453.3ZM654.5,453.3C655.07,452.62 655.913,452.226 656.8,452.226C657.687,452.226 658.53,452.62 659.1,453.3C662.4,450.3 657.6,445.3 654.5,448.5C653.187,449.818 653.187,451.982 654.5,453.3ZM663.6,453.3C664.169,452.583 665.035,452.165 665.95,452.165C666.865,452.165 667.731,452.583 668.3,453.3C671.5,450.3 666.7,445.3 663.6,448.5C662.287,449.818 662.287,451.982 663.6,453.3Z" style="fill:white;fill-rule:nonzero;"/>
    </g>
    <g transform="matrix(1,0,0,1,0,-0.141817)">
        <path d="M655.3,450C655.958,450 656.5,450.542 656.5,451.2C656.5,451.858 655.958,452.4 655.3,452.4C654.793,452.249 654.443,451.779 654.443,451.25C654.443,450.721 654.793,450.251 655.3,450.1L655.3,450ZM664.5,450C665.158,450 665.7,450.542 665.7,451.2C665.7,451.858 665.158,452.4 664.5,452.4C663.993,452.249 663.643,451.779 663.643,451.25C663.643,450.721 663.993,450.251 664.5,450.1L664.5,450Z" style="fill-rule:nonzero;"/>
    </g>
    <g transform="matrix(1,0,0,1,0,-0.141817)">
        <path d="M666,453.8C666.549,453.8 667,454.251 667,454.8C667,455.349 666.549,455.8 666,455.8C665.451,455.8 665,455.349 665,454.8C665,454.251 665.451,453.8 666,453.8ZM656.8,453.8C657.349,453.8 657.8,454.251 657.8,454.8C657.8,455.349 657.349,455.8 656.8,455.8C656.251,455.8 655.8,455.349 655.8,454.8C655.8,454.251 656.251,453.8 656.8,453.8Z" style="fill:rgb(255,101,132);fill-rule:nonzero;"/>
    </g>
    <g transform="matrix(1,0,0,1,0,-0.141817)">
        <path d="M364.7,58.2C364.151,58.2 363.7,57.749 363.7,57.2C362.249,38.596 346.561,24.047 327.9,24C326.8,24 325.7,24 324.5,24.2C324.097,24.253 323.7,24.054 323.5,23.7C315.878,10.422 301.691,2.208 286.381,2.208C267.423,2.208 250.619,14.804 245.3,33C245.165,33.432 244.752,33.721 244.3,33.7L243.6,33.7C229.481,33.753 217.192,43.701 214.2,57.5C214.104,57.971 213.681,58.31 213.2,58.3L145,58.3C144.451,58.3 144,57.849 144,57.3C144,56.751 144.451,56.3 145,56.3L212.4,56.3C215.887,41.944 228.827,31.741 243.6,31.7C249.403,13.009 266.814,0.184 286.385,0.184C302.172,0.184 316.836,8.528 324.9,22.1L327.9,22C347.586,22.042 364.146,37.375 365.7,57C365.703,57.033 365.705,57.067 365.705,57.1C365.705,57.649 365.254,58.1 364.705,58.1C364.703,58.1 364.702,58.1 364.7,58.1L364.7,58.2ZM352.6,71.3L185.6,71.3C185.051,71.3 184.6,70.849 184.6,70.3C184.6,69.751 185.051,69.3 185.6,69.3L352.6,69.3C353.149,69.3 353.6,69.751 353.6,70.3C353.6,70.849 353.149,71.3 352.6,71.3ZM226.3,86L170.3,86C169.751,86 169.3,85.549 169.3,85C169.3,84.451 169.751,84 170.3,84L226.3,84C226.849,84 227.3,84.451 227.3,85C227.3,85.549 226.849,86 226.3,86ZM899.7,134.2C899.151,134.2 898.7,133.749 898.7,133.2C897.298,114.557 881.595,99.951 862.9,99.9C861.8,99.9 860.7,99.9 859.5,100.1C859.097,100.153 858.7,99.954 858.5,99.6C850.878,86.322 836.691,78.108 821.381,78.108C802.423,78.108 785.619,90.704 780.3,108.9C780.165,109.332 779.752,109.621 779.3,109.6L778.6,109.6C764.481,109.653 752.192,119.601 749.2,133.4C749.104,133.871 748.681,134.21 748.2,134.2L680,134.2C679.451,134.2 679,133.749 679,133.2C679,132.651 679.451,132.2 680,132.2L747.4,132.2C750.887,117.844 763.827,107.641 778.6,107.6C784.403,88.909 801.814,76.084 821.385,76.084C837.172,76.084 851.836,84.428 859.9,98L862.9,97.9C882.655,97.95 899.244,113.398 900.7,133.1C900.703,133.133 900.705,133.167 900.705,133.2C900.705,133.749 900.254,134.2 899.705,134.2C899.703,134.2 899.702,134.2 899.7,134.2ZM887.6,147.3L720.6,147.3C720.051,147.3 719.6,146.849 719.6,146.3C719.6,145.751 720.051,145.3 720.6,145.3L887.6,145.3C888.149,145.3 888.6,145.751 888.6,146.3C888.6,146.849 888.149,147.3 887.6,147.3ZM761.3,162L705.3,162C704.751,162 704.3,161.549 704.3,161C704.3,160.451 704.751,160 705.3,160L761.3,160C761.849,160 762.3,160.451 762.3,161C762.3,161.549 761.849,162 761.3,162Z" style="fill:rgb(204,51,159);fill-rule:nonzero;"/>
    </g>
    <g transform="matrix(1,0,0,1,0,-0.141817)">
        <path d="M179.5,511.4C192.5,515.1 192.5,496.8 194.6,488.6C187.3,493.6 175,500.6 179.6,511.1" style="fill:rgb(74,230,26);fill-rule:nonzero;"/>
    </g>
    <g transform="matrix(1,0,0,1,0,-0.141817)">
        <path d="M180.2,525.5C178.5,515.9 178.4,503.8 187.8,498.1C188.3,497.8 188.7,498.5 188.2,498.8C179.2,504.3 179.4,516 181,525.3C181.008,525.333 181.012,525.366 181.012,525.4C181.012,525.626 180.826,525.812 180.6,525.812C180.411,525.812 180.246,525.683 180.2,525.5Z" style="fill:rgb(38,123,217);fill-rule:nonzero;"/>
    </g>
    <g transform="matrix(1,0,0,1,0,-0.141817)">
        <path d="M184.4,518.7C190.3,526.7 198.5,516 203.4,512.1C196.9,511.8 186.5,510.5 184.5,518.6" style="fill:rgb(74,230,26);fill-rule:nonzero;"/>
    </g>
    <g transform="matrix(1,0,0,1,0,-0.141817)">
        <path d="M178.6,528C181.9,521.5 187.2,514.3 195.4,515.2C195.9,515.2 195.8,516.1 195.2,516C187.5,515.2 182.5,522.2 179.3,528.3C179.1,528.7 178.3,528.4 178.6,527.9L178.6,528Z" style="fill:rgb(38,123,217);fill-rule:nonzero;"/>
    </g>
    <g transform="matrix(1,0,0,1,0,-0.141817)">
        <path d="M835.3,511.4C822.3,515.1 822.3,496.8 820.2,488.6C827.4,493.6 839.7,500.6 835.2,511.1" style="fill:rgb(74,230,26);fill-rule:nonzero;"/>
    </g>
    <g transform="matrix(1,0,0,1,0,-0.141817)">
        <path d="M834.6,525.5C836.2,515.9 836.4,503.8 826.9,498.1C826.5,497.8 826.1,498.5 826.5,498.8C835.6,504.3 835.3,516 833.8,525.3C833.792,525.333 833.788,525.366 833.788,525.4C833.788,525.626 833.974,525.812 834.2,525.812C834.389,525.812 834.554,525.683 834.6,525.5Z" style="fill:rgb(38,123,217);fill-rule:nonzero;"/>
    </g>
    <g transform="matrix(1,0,0,1,0,-0.141817)">
        <path d="M830.4,518.7C824.4,526.7 816.2,516 811.4,512.1C817.9,511.8 828.2,510.5 830.2,518.6" style="fill:rgb(74,230,26);fill-rule:nonzero;"/>
    </g>
    <g transform="matrix(1,0,0,1,0,-0.141817)">
        <path d="M836.2,528C832.9,521.5 827.5,514.3 819.4,515.2C818.9,515.2 819,516.1 819.5,516C827.2,515.2 832.3,522.2 835.5,528.3C835.7,528.7 836.5,528.4 836.2,527.9L836.2,528Z" style="fill:rgb(38,123,217);fill-rule:nonzero;"/>
    </g>
    <g transform="matrix(1,0,0,1,0,-0.141817)">
        <path d="M889.5,498.6C867,505.1 866.8,473.3 863.2,459C875.9,467.6 897.3,480 889.5,498.2" style="fill:rgb(74,230,26);fill-rule:nonzero;"/>
    </g>
    <g transform="matrix(1,0,0,1,0,-0.141817)">
        <path d="M888.3,523.3C891.3,506.6 891.4,485.4 875,475.5C874.3,475 873.5,476.3 874.3,476.8C890.1,486.3 889.7,506.8 886.9,522.9C886.881,522.965 886.872,523.032 886.872,523.1C886.872,523.499 887.201,523.828 887.6,523.828C887.924,523.828 888.211,523.612 888.3,523.3Z" style="fill:rgb(38,123,217);fill-rule:nonzero;"/>
    </g>
    <g transform="matrix(1,0,0,1,0,-0.141817)">
        <path d="M881,511.5C870.7,525.3 856.4,506.8 847.9,500C859.2,499.4 877.3,497 880.8,511.3" style="fill:rgb(74,230,26);fill-rule:nonzero;"/>
    </g>
    <g transform="matrix(1,0,0,1,0,-0.141817)">
        <path d="M891.2,527.5C885.3,516.4 876,503.8 861.9,505.4C860.9,505.4 861.2,506.9 862.1,506.8C875.6,505.4 884.3,517.5 889.8,528.1C890.3,528.9 891.6,528.3 891.2,527.5Z" style="fill:rgb(38,123,217);fill-rule:nonzero;"/>
    </g>
</svg>
