<svg width="201" height="95" viewBox="0 0 201 95" fill="none" xmlns="http://www.w3.org/2000/svg">
<path d="M69.0098 94.9373C68.4298 94.9373 67.8698 94.8174 67.3898 94.4174C66.6798 93.8373 66.3698 92.8573 66.1098 91.8973C63.1198 80.8373 61.3398 69.3574 60.8298 57.7674C60.8098 59.1374 60.9098 61.3973 61.2398 65.0773C61.6398 69.4874 62.2198 74.2174 62.5098 76.4874C62.5998 77.1674 62.6498 77.6173 62.6698 77.7973C62.8198 79.2374 62.1898 80.8573 60.8898 82.3573C59.3898 84.0973 57.1098 85.5373 54.4898 86.4073C51.4598 87.4073 48.0098 87.6473 44.5098 87.0773C42.1998 86.7073 40.1698 86.0073 38.4798 85.0073C36.9898 84.1273 35.7798 83.0273 34.8698 81.7173C34.7698 81.7673 34.6798 81.8173 34.5798 81.8673C32.0498 83.1773 29.1998 83.9373 26.0998 84.1473C23.3498 84.3273 20.4298 84.0974 17.1698 83.4373C11.3598 82.2573 5.59981 79.9274 0.209808 77.6273C0.0398083 77.5574 -0.0401917 77.3373 0.0198083 77.1373C0.0798083 76.9373 0.259808 76.8373 0.429808 76.9073C5.79981 79.1873 11.5198 81.5073 17.2798 82.6773C20.4998 83.3273 23.3698 83.5574 26.0698 83.3773C29.0998 83.1774 31.8698 82.4274 34.3298 81.1674C34.3798 81.1474 34.4298 81.1173 34.4798 81.0873C34.2598 80.7273 34.0698 80.3473 33.8898 79.9573C33.2398 78.5173 32.9398 76.5973 33.0898 74.9573C33.2198 73.5973 33.7898 72.4373 34.6298 71.8773C35.2398 71.4673 35.9998 71.3773 36.7498 71.6473C37.5998 71.9473 38.3298 72.6673 38.7098 73.5673C39.3598 75.1073 39.1398 77.1473 38.1598 78.7573C37.5498 79.7673 36.6698 80.6173 35.4798 81.3573C36.9698 83.4173 39.6798 85.5173 44.6198 86.3074C48.0298 86.8574 51.3898 86.6374 54.3398 85.6573C56.8598 84.8273 59.0398 83.4473 60.4598 81.7973C61.6098 80.4673 62.1698 79.0773 62.0498 77.8773C62.0298 77.7074 61.9698 77.2374 61.8898 76.5873C61.6098 74.3074 61.0198 69.5673 60.6198 65.1473C60.3998 62.6673 60.2598 60.6273 60.2198 59.0774C60.1498 56.4974 60.3398 55.7474 60.4998 55.4074C60.6098 55.1674 60.7398 54.9574 60.8998 54.7574C60.9898 54.2873 61.1598 53.8373 61.4598 53.4674C61.7398 53.1073 62.1198 52.8474 62.6498 52.6374C63.4298 52.3274 64.2898 52.0873 65.3198 51.8773L67.3198 51.4774C81.3498 48.6674 95.8498 45.7674 110.25 44.2074C110.78 44.1474 111.5 44.0674 112.11 44.4374C113.06 45.0074 113.34 46.3074 113.51 47.6073C114.93 58.5873 115.88 69.7873 116.34 80.8873V81.0574C116.38 81.9174 116.42 82.8773 116.26 83.7374C116.06 84.7874 115.57 85.4973 114.8 85.8673C113.35 86.5574 111.75 86.6873 110.2 86.8173C109.56 86.8673 108.91 86.9274 108.29 87.0173C101.53 88.0373 94.6698 89.2174 88.0398 90.3474C82.0298 91.3773 75.8098 92.4373 69.6898 93.3873C68.6698 93.5473 67.8598 92.9473 67.2498 91.5974C66.7698 90.5374 66.5098 89.1973 66.3098 88.1273C66.2298 87.7474 66.1698 87.4073 66.0998 87.1473C65.0198 82.6673 64.2698 78.1074 63.6698 74.2374C62.9298 69.4373 62.4298 65.4773 62.0898 61.7574C62.0698 61.5474 62.0298 61.2374 61.9898 60.8674C61.6798 58.4174 61.4298 55.9374 62.0698 55.0174C62.2298 54.7774 62.4498 54.6474 62.6998 54.6374C62.9498 54.6174 63.4498 54.7674 66.0698 56.7274C67.7598 57.9974 70.0098 59.7674 72.3898 61.6374C75.9498 64.4374 79.9798 67.6073 83.3198 70.0173C85.1298 71.3273 86.5598 72.2773 87.6798 72.9273C89.2698 73.8473 89.8498 73.9273 90.0598 73.8873C91.1398 73.7073 96.1898 68.8574 101.96 61.9274C104.75 58.5774 107.12 55.4473 108.8 52.8773C111.32 49.0173 111.6 47.4774 111.54 46.9074C111.52 46.7174 111.47 46.2174 110.39 46.3474C105.82 46.8874 90.7998 49.3474 65.7398 53.6474C65.6098 53.6674 65.4798 53.6874 65.3498 53.7174C64.0698 53.9273 62.3898 54.2074 61.4898 55.1273C61.4198 55.6073 61.4298 56.1273 61.4498 56.6174C61.8898 68.5173 63.6698 80.2973 66.7398 91.6373C66.9698 92.5073 67.2298 93.3173 67.7698 93.7573C68.3898 94.2573 69.2498 94.1674 70.1398 94.0173C73.2898 93.4874 75.5998 93.0674 77.8298 92.6674C80.8298 92.1273 83.6598 91.6073 87.9998 90.9273C90.5298 90.5273 95.4198 89.6473 99.3598 88.9373C101.28 88.5974 103.1 88.2673 104.33 88.0473C105.52 87.8373 106.79 87.6674 108.01 87.4874C110.32 87.1674 112.71 86.8273 114.88 86.2573C115.96 85.9773 116.59 84.5473 116.77 82.0273C116.92 79.7973 116.69 77.2673 116.53 75.5873C116.49 75.1073 116.45 74.6973 116.43 74.3973C116.39 73.6973 116.3 72.8573 116.21 71.9673C115.85 68.4673 115.67 66.1074 116.38 65.3474C116.52 65.1973 116.76 65.0373 117.12 65.1173C118.7 65.4973 120.37 66.0073 121.99 66.4874C123.74 67.0173 125.39 67.5173 126.49 67.7073C127.9 67.9573 131.31 68.1973 134.92 67.7873C136.79 67.5773 139.04 67.1473 140.91 66.2873C140.75 66.0373 140.6 65.7673 140.48 65.4874C140.1 64.6573 139.9 63.7773 139.88 62.8573C139.86 61.8673 140.04 60.8374 140.43 59.7974C140.79 58.8174 141.31 58.1374 141.93 57.8374C142.51 57.5574 143.17 57.6074 143.78 57.9974C144.5 58.4474 145.04 59.2873 145.2 60.1874C145.51 61.9874 145.14 63.5574 144.11 64.8373C143.58 65.4974 142.86 66.0873 141.97 66.5873C142.41 67.1173 142.95 67.5974 143.56 68.0173C144.62 68.7474 145.88 69.2774 147.18 69.5473C151.29 70.3873 155.39 68.5574 158.11 66.8773C161.46 64.8074 164.65 61.7673 166.85 58.5373C169.27 54.9874 171.16 50.7974 172.47 46.0874C173.41 42.6974 173.99 40.0673 174.33 37.5574C174.35 37.4073 174.37 37.2574 174.39 37.1073C174.46 36.6073 174.53 36.0974 174.59 35.5674C173.6 34.8274 172.68 33.9374 172.13 32.9274C171.57 31.9174 171.47 30.9174 171.83 29.9774C172.17 29.0674 172.71 28.9874 172.99 29.0074C173.93 29.1074 174.94 30.6874 175.15 31.7074C175.39 32.8374 175.37 34.0274 175.27 35.1674C176.05 35.7274 176.97 36.2574 177.99 36.7574C180.31 37.8773 182.86 38.6174 184.5 38.6273C184.64 38.6273 185.17 38.4374 186.52 36.0674C189.09 31.5574 192.61 22.7074 195.05 15.9274C196.43 12.0974 197.63 8.49735 198.42 5.77735C199.15 3.27735 199.39 2.01735 199.47 1.38735C199.21 1.64735 198.84 1.99735 198.35 2.43735C197.39 3.29735 196 4.48735 194.1 6.06735C193.58 6.50735 193.03 6.95735 192.45 7.43735C190.04 9.88735 187.27 12.7774 184.37 15.7974C179.91 20.4474 175.3 25.2574 171.82 28.6374C171.02 29.4174 170.89 30.4274 170.74 31.7174L170.72 31.9174C170.65 32.5274 170.58 34.0274 170.52 35.6174C170.46 37.1474 170.39 38.8774 170.29 40.2274C170.24 40.9674 170.18 41.5274 170.12 41.9374C170.02 42.5774 169.91 42.8474 169.71 42.9574C169.71 42.9574 169.71 42.9574 169.7 42.9574C169.59 43.0074 169.36 43.0574 169.12 42.7974C169.01 42.6774 168.89 42.4974 168.78 42.2474C168.19 40.9474 167.53 37.4973 167.19 34.0373C167.02 32.2574 166.96 30.6774 167.01 29.4674C167.07 27.9574 167.31 27.0474 167.74 26.6874C171.27 23.7474 176.09 19.8374 180.74 16.0574C184.69 12.8474 188.77 9.54735 192.06 6.82735C192.84 6.03735 193.58 5.28735 194.28 4.59735C196.14 2.75735 197.35 1.64735 198.15 0.997351C197.88 1.09735 197.55 1.22735 197.15 1.40735C195.88 1.96735 194.15 2.87735 192.01 4.09735C188.2 6.26735 183.11 9.41735 177.27 13.2174C166.68 20.1074 155.87 27.6974 154.13 29.4574C153.99 29.5974 153.85 29.7474 153.8 29.9174C153.78 30.0074 153.76 30.1174 153.8 30.1674C153.98 30.3974 154.84 30.3874 155.75 30.1374C156.78 29.8574 157.95 29.5674 159.18 29.2574C161.25 28.7374 163.59 28.1574 165.69 27.5174C165.86 27.4674 166.04 27.5874 166.08 27.7874C166.12 27.9874 166.02 28.1974 165.85 28.2474C163.73 28.8974 161.38 29.4874 159.3 29.9974C158.07 30.3074 156.91 30.5874 155.88 30.8674C155.74 30.9074 155.23 31.0373 154.7 31.0774C154.01 31.1273 153.55 30.9974 153.3 30.6774C153.16 30.4974 153.03 30.1774 153.17 29.6774C153.27 29.3274 153.49 29.0874 153.69 28.8874C155.46 27.0974 165.96 19.7174 176.63 12.7574C182.41 8.98735 187.5 5.82735 191.35 3.61735C197.6 0.0873513 199.03 -0.122649 199.57 0.0373511C199.76 0.0873511 199.87 0.207351 199.93 0.307351C200.2 0.577351 200.2 1.19735 199.96 2.42735C199.23 6.13735 196.17 15.2874 192.83 23.7074C191.08 28.1374 189.44 31.8974 188.08 34.5874C187.33 36.0774 186.67 37.2374 186.11 38.0373C185.45 38.9874 184.93 39.4374 184.49 39.4374C182.75 39.4174 180.16 38.6773 177.74 37.5074C177.04 37.1674 176.11 36.6773 175.18 36.0373C175.13 36.4573 175.07 36.8674 175.01 37.2774L174.95 37.7274C174.6 40.2674 174.02 42.9374 173.07 46.3674C171.74 51.1674 169.81 55.4274 167.34 59.0474C165.09 62.3474 161.83 65.4673 158.4 67.5773C156.08 69.0073 152.78 70.5473 149.29 70.5473C148.55 70.5473 147.81 70.4773 147.06 70.3273C145.14 69.9373 142.82 68.8574 141.33 66.9473C140.97 67.1273 140.58 67.2873 140.17 67.4373C138.72 67.9773 136.97 68.3573 134.98 68.5873C131.32 69.0073 127.84 68.7673 126.39 68.5073C125.26 68.3074 123.59 67.7973 121.83 67.2673C120.22 66.7774 118.56 66.2773 116.99 65.8973C116.89 65.8773 116.84 65.8973 116.81 65.9373C116.69 66.0673 116.5 66.5073 116.54 68.0673C116.57 69.2073 116.71 70.5873 116.84 71.9073C116.93 72.8074 117.02 73.6573 117.06 74.3773C117.08 74.6674 117.12 75.0773 117.16 75.5473C117.32 77.2573 117.56 79.8273 117.4 82.1273C117.2 85.0274 116.39 86.6773 115.01 87.0473C112.81 87.6273 110.4 87.9573 108.07 88.2873C106.79 88.4673 105.59 88.6374 104.4 88.8474C103.17 89.0574 101.36 89.3874 99.4398 89.7374C95.4998 90.4473 90.5998 91.3273 88.0698 91.7273C83.7298 92.4174 80.9098 92.9273 77.9198 93.4673C75.6798 93.8773 73.3798 94.2873 70.2198 94.8273C69.8198 94.8973 69.4098 94.9573 69.0098 94.9573V94.9373ZM62.7098 55.4274C62.7098 55.4274 62.6098 55.4473 62.5498 55.5373C62.4298 55.7073 62.2398 56.2174 62.3098 57.7474C62.3498 58.7974 62.4998 59.9574 62.6098 60.7974C62.6598 61.1674 62.6998 61.4874 62.7198 61.7174C63.0598 65.4174 63.5598 69.3673 64.2998 74.1473C64.8898 77.9973 65.6498 82.5274 66.7198 86.9773C66.7898 87.2673 66.8598 87.6173 66.9298 87.9973C67.1298 89.0273 67.3798 90.3073 67.8198 91.2873C68.2998 92.3473 68.8598 92.7873 69.5998 92.6773C75.7198 91.7273 81.9298 90.6673 87.9398 89.6373C94.5798 88.5073 101.44 87.3273 108.2 86.3074C108.84 86.2074 109.51 86.1474 110.15 86.0974C111.65 85.9674 113.2 85.8373 114.55 85.1973C115.85 84.5773 115.77 82.7474 115.7 81.1273V80.9573C115.23 69.8873 114.28 58.7174 112.87 47.7574C112.72 46.6474 112.5 45.5574 111.81 45.1474C111.4 44.8974 110.89 44.9274 110.31 44.9974C95.9298 46.5574 81.4398 49.4574 67.4298 52.2574L65.4398 52.6574C64.4298 52.8574 63.6098 53.0874 62.8598 53.3874C62.4998 53.5274 62.2298 53.6973 62.0398 53.8974C63.0298 53.3773 64.2598 53.1773 65.2698 53.0074C65.3998 52.9874 65.5298 52.9574 65.6598 52.9374C90.7298 48.6374 105.76 46.1773 110.33 45.6273C111.81 45.4473 112.12 46.3173 112.18 46.8573C112.31 48.0974 111.37 50.2273 109.31 53.3773C107.61 55.9674 105.23 59.1274 102.42 62.4974C99.8698 65.5574 97.2098 68.5073 94.9298 70.7873C92.4798 73.2373 90.8798 74.5473 90.1498 74.6773C89.8298 74.7273 89.1898 74.6773 87.3898 73.6373C86.2498 72.9773 84.8098 72.0173 82.9798 70.6973C79.6298 68.2774 75.5898 65.1074 72.0198 62.2974C69.6798 60.4574 67.4698 58.7174 65.7898 57.4574C64.8998 56.7874 64.2198 56.2974 63.6998 55.9674C62.9698 55.4874 62.7598 55.4374 62.7198 55.4374L62.7098 55.4274ZM35.8698 72.2673C35.5298 72.2673 35.2098 72.3573 34.9398 72.5473C34.2798 72.9874 33.8298 73.9273 33.7198 75.0473C33.5798 76.5473 33.8598 78.2973 34.4498 79.6173C34.6198 79.9874 34.8198 80.3773 35.0598 80.7673C36.2098 80.0674 37.0498 79.2673 37.6298 78.3273C38.0198 77.6773 38.2898 76.9073 38.3898 76.1473C38.4898 75.3373 38.3998 74.5674 38.1298 73.9174C37.8298 73.2074 37.2498 72.6373 36.5598 72.3873C36.3298 72.3073 36.0998 72.2673 35.8798 72.2673H35.8698ZM142.68 58.4473C142.5 58.4473 142.33 58.4874 142.17 58.5674C141.58 58.8574 141.21 59.5774 141.01 60.1273C140.34 61.9473 140.35 63.6374 141.04 65.1674C141.17 65.4574 141.33 65.7473 141.52 66.0273C142.36 65.5773 143.09 65.0173 143.64 64.3474C144.53 63.2374 144.84 61.9374 144.57 60.3674C144.45 59.6874 144.04 59.0473 143.48 58.6973C143.22 58.5373 142.95 58.4473 142.69 58.4473H142.68ZM187.64 11.4074C185.52 13.1374 183.29 14.9474 181.09 16.7274C176.43 20.5074 171.62 24.4074 168.09 27.3474C167.99 27.4374 167.48 28.0574 167.65 31.8174C167.75 33.9174 168.05 36.4473 168.45 38.5974C168.64 39.6374 168.86 40.5373 169.06 41.1973C169.21 41.6973 169.34 41.9774 169.42 42.1174C169.48 41.8274 169.57 41.2274 169.65 39.9374C169.74 38.6374 169.8 37.0273 169.86 35.6073C169.93 33.9273 169.99 32.4774 170.06 31.8374L170.08 31.6374C170.24 30.3074 170.39 29.0473 171.39 28.0774C174.87 24.7074 179.47 19.8974 183.92 15.2574C185.19 13.9374 186.43 12.6474 187.63 11.3974L187.64 11.4074ZM172.88 29.7974C172.78 29.7974 172.58 29.8474 172.41 30.3174C172.14 31.0273 172.23 31.7574 172.66 32.5474C173.06 33.2674 173.74 34.0174 174.65 34.7474C174.72 33.7874 174.71 32.8274 174.52 31.9274C174.34 31.0874 173.51 29.8574 172.92 29.7974C172.91 29.7974 172.89 29.7974 172.87 29.7974H172.88Z" fill="#14AE5C"/>
</svg>
