<svg width="281" height="222" viewBox="0 0 281 222" fill="none" xmlns="http://www.w3.org/2000/svg">
<path d="M141 136C154.807 136 166 124.807 166 111C166 97.1929 154.807 86 141 86C127.193 86 116 97.1929 116 111C116 124.807 127.193 136 141 136Z" stroke="black"/>
<path d="M156.917 123.989L155.097 126.417C155.018 126.513 154.917 126.589 154.803 126.637C154.688 126.686 154.563 126.705 154.439 126.694C151.511 126.492 146.811 124.6 146.811 124.6L142.261 123.103C141.927 122.986 141.598 122.851 141.278 122.7C141.211 122.66 141.134 122.639 141.056 122.639C140.977 122.639 140.901 122.66 140.833 122.7C140.513 122.851 140.184 122.985 139.85 123.103L135.303 124.611C135.303 124.611 130.603 126.503 127.675 126.706C127.551 126.716 127.426 126.697 127.311 126.648C127.197 126.6 127.095 126.524 127.017 126.428L125.197 124C124.919 123.631 125.178 123.144 125.683 123.072C127.472 122.825 129.161 122.439 129.828 121.742L137.067 114.217C137.151 114.13 137.206 114.018 137.221 113.897C137.236 113.777 137.211 113.655 137.15 113.55C137.128 113.513 137.101 113.479 137.069 113.45L130.011 106.028C129.353 105.336 127.567 104.933 125.819 104.711C125.311 104.644 125.05 104.156 125.325 103.783L127.142 101.342C127.22 101.245 127.321 101.169 127.435 101.121C127.549 101.073 127.674 101.053 127.797 101.064L139.575 105.194C139.564 105.121 139.558 105.047 139.558 104.972V104.35C139.558 104.101 139.496 103.855 139.377 103.636C139.259 103.417 139.087 103.23 138.878 103.094L133.339 99.4833C132.556 99.0083 132.156 97.975 131.95 96.9361C131.896 96.6584 131.936 96.3704 132.065 96.1185C132.194 95.8666 132.404 95.6654 132.661 95.5472L132.939 95.4083C133.101 95.3298 133.277 95.2865 133.457 95.2813C133.637 95.2761 133.815 95.3091 133.981 95.3782C134.147 95.4473 134.297 95.5508 134.42 95.6819C134.543 95.8131 134.636 95.9688 134.694 96.1389C134.75 96.2847 134.815 96.4267 134.889 96.5639C134.98 96.7255 135.106 96.8648 135.257 96.9719C135.408 97.0791 135.581 97.1513 135.764 97.1833L140.653 98.0639C140.745 98.0787 140.838 98.0862 140.931 98.0861H141.208C141.301 98.0865 141.394 98.079 141.486 98.0639L146.361 97.1833C146.544 97.1503 146.718 97.0769 146.87 96.9683C147.021 96.8597 147.146 96.7187 147.236 96.5556C147.31 96.4184 147.375 96.2764 147.431 96.1306C147.491 95.968 147.585 95.8197 147.705 95.6948C147.825 95.5698 147.97 95.471 148.13 95.4043C148.291 95.3376 148.463 95.3046 148.636 95.3072C148.81 95.3098 148.981 95.348 149.139 95.4194L149.433 95.5583C149.691 95.6765 149.901 95.8777 150.03 96.1296C150.158 96.3815 150.199 96.6695 150.144 96.9472C149.953 97.9861 149.553 99.0194 148.756 99.4944L143.217 103.106C143.008 103.242 142.836 103.428 142.717 103.647C142.598 103.866 142.536 104.112 142.536 104.361V104.981C142.536 105.055 142.531 105.129 142.519 105.203L154.297 101.072C154.421 101.061 154.545 101.081 154.66 101.129C154.774 101.178 154.875 101.254 154.953 101.35L156.792 103.778C157.069 104.15 156.792 104.639 156.297 104.706C154.55 104.928 152.761 105.331 152.106 106.022L145.047 113.433C145.015 113.462 144.988 113.496 144.967 113.533C144.903 113.637 144.877 113.76 144.892 113.881C144.907 114.002 144.963 114.115 145.05 114.2L152.289 121.725C152.956 122.422 154.644 122.808 156.433 123.056C156.939 123.133 157.194 123.619 156.917 123.989Z" stroke="black" stroke-linecap="round" stroke-linejoin="round"/>
<rect x="0.5" y="0.5" width="280" height="221" rx="8.5" stroke="black"/>
</svg>
